<?xml version="1.0" standalone="no"?>
<!DOCTYPE svg PUBLIC "-//W3C//DTD SVG 20010904//EN"
 "http://www.w3.org/TR/2001/REC-SVG-20010904/DTD/svg10.dtd">
<svg version="1.0" xmlns="http://www.w3.org/2000/svg"
 width="1464.000000pt" height="1004.000000pt" viewBox="0 0 1464.000000 1004.000000"
 preserveAspectRatio="xMidYMid meet">

<g transform="translate(0.000000,1004.000000) scale(0.100000,-0.100000)"
fill="#000000" stroke="none">
<path d="M0 5020 l0 -5020 7320 0 7320 0 0 5020 0 5020 -7320 0 -7320 0 0
-5020z m171 4587 c21 -126 24 -176 10 -161 -5 5 -11 23 -13 39 -2 22 -9 31
-25 33 -18 3 -22 -3 -28 -37 -7 -41 -25 -57 -25 -23 0 22 38 241 45 261 10 27
18 0 36 -112z m59 -22 c0 -78 -4 -136 -10 -140 -6 -4 -10 45 -10 140 0 95 4
144 10 140 6 -4 10 -62 10 -140z m434 123 c21 -33 31 -78 17 -78 -6 0 -16 11
-21 25 -24 64 -67 -9 -57 -97 9 -75 38 -102 57 -53 9 25 30 35 30 15 0 -6 -7
-26 -14 -45 -19 -44 -56 -48 -77 -8 -22 40 -19 201 4 236 21 33 42 34 61 5z
m214 -128 l-3 -134 -31 -3 c-28 -3 -33 0 -43 28 -14 39 -14 119 -1 153 7 19
17 26 35 26 23 0 25 4 25 42 0 29 3 39 10 32 7 -7 10 -62 8 -144z m34 115
c-12 -22 -27 -2 -18 22 5 12 10 13 17 6 7 -7 8 -17 1 -28z m294 -78 l20 -102
20 103 c10 57 24 104 29 105 6 1 11 -52 13 -140 2 -89 -1 -143 -7 -143 -6 0
-11 35 -13 78 l-3 77 -15 -73 c-8 -40 -19 -73 -25 -73 -5 0 -17 35 -25 78
l-15 78 -3 -83 c-4 -129 -22 -88 -22 53 0 190 13 202 46 42z m266 41 c3 -72 4
-72 17 -40 7 17 19 32 27 32 12 0 12 -6 -2 -37 -20 -46 -20 -62 2 -119 9 -24
14 -47 11 -50 -11 -11 -25 6 -32 36 -10 46 -25 46 -25 1 0 -23 -4 -41 -10 -41
-6 0 -10 55 -10 145 0 86 4 145 10 145 5 0 11 -33 12 -72z m-1032 7 c0 -30 -4
-55 -10 -55 -5 0 -10 25 -10 55 0 30 5 55 10 55 6 0 10 -25 10 -55z m1210 10
c0 -14 5 -25 10 -25 6 0 10 -7 10 -15 0 -8 -5 -15 -11 -15 -12 0 -8 -119 6
-157 5 -17 4 -23 -8 -23 -9 0 -18 8 -21 18 -5 17 -10 162 -7 215 1 34 21 36
21 2z m275 -70 c17 0 20 8 23 48 2 26 7 45 13 42 12 -8 12 -225 -1 -225 -5 0
-10 23 -10 51 0 47 -2 50 -22 47 -20 -3 -24 -11 -28 -53 -8 -76 -18 -41 -18
60 0 108 10 153 18 80 4 -42 8 -50 25 -50z m489 25 c4 -30 3 -40 -3 -30 -7 10
-11 -6 -14 -55 -2 -53 -4 -44 -5 40 -2 109 9 132 22 45z m56 -17 c-10 -16 -11
-15 -6 7 3 14 7 36 7 50 2 19 3 18 6 -7 2 -18 -1 -41 -7 -50z m185 -20 c9 14
11 11 11 -20 0 -21 3 -51 7 -68 7 -29 5 -27 -16 25 -10 24 -11 24 -17 -15 -5
-25 -7 0 -7 70 0 84 2 96 6 50 5 -48 8 -56 16 -42z m10880 -93 c14 0 25 -4 25
-10 0 -5 -13 -10 -30 -10 l-30 0 2 108 2 107 3 -97 c4 -97 4 -98 28 -98z m495
171 c21 -40 7 -106 -22 -106 -8 0 -15 -18 -19 -45 -4 -31 -6 -10 -7 63 -2 100
-1 107 18 107 10 0 24 -9 30 -19z m-11237 -99 c1 -50 -1 -88 -5 -84 -11 12
-14 191 -3 180 3 -3 6 -46 8 -96z m11540 -1 c1 -49 -1 -87 -5 -83 -4 4 -7 36
-8 72 -2 91 -1 114 6 107 3 -3 6 -46 7 -96z m-14023 60 c5 -11 10 -38 10 -60
0 -39 -2 -41 -30 -41 -31 0 -37 -13 -21 -39 8 -12 12 -13 25 -1 23 18 32 5 18
-25 -15 -32 -46 -32 -60 0 -15 31 -16 124 -2 159 11 31 45 35 60 7z m47 -8
l10 -28 8 28 c11 39 29 35 20 -5 -10 -41 -10 -92 0 -140 5 -25 4 -38 -3 -38
-6 0 -14 15 -18 33 l-7 32 -15 -35 c-19 -46 -28 -21 -12 34 9 32 9 53 1 82 -6
21 -11 45 -11 52 0 22 16 13 27 -15z m165 2 c14 -31 3 -45 -16 -19 -14 18 -15
18 -22 1 -4 -13 2 -27 20 -46 27 -29 34 -68 16 -102 -15 -28 -48 -24 -56 6 -8
32 4 46 18 21 8 -15 12 -16 19 -5 13 21 11 27 -16 51 -25 21 -33 66 -19 102 9
25 43 19 56 -9z m248 6 c15 -28 12 -152 -4 -173 -34 -46 -66 -1 -66 93 0 69
12 99 40 99 11 0 24 -9 30 -19z m140 -87 c0 -67 -4 -103 -10 -99 -11 7 -14
188 -3 198 12 13 13 7 13 -99z m90 80 c13 -34 13 -184 0 -184 -6 0 -10 33 -10
78 0 42 -4 83 -9 91 -16 25 -31 -23 -31 -98 0 -41 -4 -71 -10 -71 -6 0 -10 41
-10 103 l0 104 30 1 c24 0 33 -5 40 -24z m105 -103 c0 -108 -3 -125 -19 -137
-21 -15 -50 -5 -60 22 -10 25 5 40 20 20 15 -21 34 -13 34 14 0 13 -5 17 -14
14 -37 -14 -62 103 -36 171 8 22 15 26 42 22 l33 -3 0 -123z m265 110 c5 -11
10 -58 10 -104 l0 -84 -30 -1 c-34 -1 -50 20 -50 67 0 30 6 39 43 64 12 8 16
19 11 30 -6 17 -8 17 -25 1 -18 -16 -19 -16 -19 8 0 13 3 28 7 31 13 14 43 7
53 -12z m70 6 c0 -7 -5 -18 -12 -25 -6 -6 -13 -47 -16 -92 -2 -44 -8 -80 -13
-80 -5 0 -9 47 -9 105 l0 105 25 0 c14 0 25 -6 25 -13z m160 -6 c5 -11 10 -38
10 -60 0 -39 -2 -41 -30 -41 -31 0 -37 -13 -21 -39 8 -12 12 -13 25 -1 23 18
32 5 18 -25 -15 -32 -46 -32 -60 0 -15 31 -16 124 -2 159 11 31 45 35 60 7z
m447 -58 c8 -81 -29 -135 -57 -84 -16 30 -12 113 6 140 15 20 18 21 32 8 8 -9
17 -37 19 -64z m193 1 c0 -30 -3 -34 -25 -34 -27 0 -30 -7 -15 -30 9 -13 11
-13 19 0 6 8 13 11 18 7 10 -11 -10 -41 -30 -45 -35 -7 -47 127 -14 166 17 21
47 -20 47 -64z m-82 -22 c2 -51 -1 -81 -7 -78 -5 3 -7 15 -4 26 8 28 -7 111
-18 105 -5 -4 -9 -35 -9 -71 0 -36 -4 -64 -10 -64 -6 0 -10 28 -10 65 0 37 -4
65 -10 65 -6 0 -10 -28 -10 -65 0 -37 -4 -65 -10 -65 -6 0 -10 35 -10 85 l0
85 48 -2 47 -3 3 -83z m392 66 c0 -6 -3 -8 -7 -5 -3 4 -12 2 -20 -4 -13 -11
-19 2 -6 14 11 11 33 8 33 -5z m60 2 c0 -5 -4 -10 -10 -10 -5 0 -11 -30 -13
-67 l-3 -68 -2 78 c-2 63 1 77 13 77 8 0 15 -4 15 -10z m138 -15 c3 -18 2 -19
-8 -2 -15 23 -30 13 -30 -20 0 -20 4 -24 20 -20 11 3 20 1 20 -4 0 -5 -9 -9
-20 -9 -15 0 -20 -7 -20 -26 0 -22 4 -25 21 -21 13 3 19 1 16 -6 -7 -21 -35
-19 -42 3 -18 55 -3 133 23 128 9 -2 18 -12 20 -23z m10877 4 c4 -11 4 -23 1
-26 -3 -4 -6 1 -6 11 0 11 -6 16 -17 14 -13 -2 -20 -16 -24 -48 l-6 -45 -1 38
c-3 65 37 107 53 56z m85 -69 c0 -87 -14 -131 -38 -116 -18 11 -14 24 6 22 11
-1 18 7 20 26 3 22 0 26 -16 21 -21 -5 -32 18 -32 74 0 47 9 63 36 61 23 -2
24 -5 24 -88z m105 67 c4 -13 4 -48 2 -78 -3 -54 -3 -53 -5 13 -3 106 -38 100
-45 -7 -3 -56 -3 -55 -5 18 -2 76 -2 77 23 77 17 0 26 -7 30 -23z m295 4 c19
-36 13 -61 -16 -61 -21 0 -25 -4 -22 -22 2 -15 9 -22 21 -22 9 1 17 -4 17 -12
0 -19 -36 -18 -44 2 -3 9 -6 35 -6 59 0 24 3 50 6 59 8 22 31 20 44 -3z m82
-8 l-5 -27 -9 25 c-9 23 -10 23 -24 5 -11 -15 -14 -16 -14 -5 0 21 9 29 35 29
19 0 21 -4 17 -27z m98 17 c0 -5 -7 -7 -15 -4 -23 9 -19 -38 5 -59 21 -18 25
-43 11 -66 -10 -16 -41 -8 -41 10 0 8 4 9 13 0 8 -6 17 -8 20 -4 14 13 6 43
-13 53 -20 10 -28 58 -13 73 10 10 33 8 33 -3z m120 -9 c19 -36 13 -61 -15
-61 -33 0 -35 -37 -2 -49 20 -8 21 -10 3 -16 -11 -5 -21 -3 -27 6 -10 16 -12
99 -3 123 8 22 31 20 44 -3z m60 9 c0 -5 -4 -10 -9 -10 -5 0 -12 -10 -14 -22
-3 -17 -5 -14 -6 10 -1 22 3 32 14 32 8 0 15 -4 15 -10z m-11910 -78 c0 -54
-1 -58 -25 -60 -16 -1 -25 3 -25 12 0 8 8 13 17 12 12 -1 19 7 21 23 3 20 0
23 -17 18 -12 -3 -21 -2 -21 3 0 4 9 10 20 13 11 3 20 12 20 21 0 9 2 16 5 16
3 0 5 -26 5 -58z m-103 16 c-3 -8 -6 -5 -6 6 -1 11 2 17 5 13 3 -3 4 -12 1
-19z m-30 -10 c-3 -8 -6 -5 -6 6 -1 11 2 17 5 13 3 -3 4 -12 1 -19z m11600
-20 c-3 -8 -6 -5 -6 6 -1 11 2 17 5 13 3 -3 4 -12 1 -19z m-401 -23 c-7 -27
-35 -32 -43 -8 -3 7 3 9 16 6 17 -4 21 -1 21 18 0 12 3 20 6 16 4 -3 3 -18 0
-32z m552 -6 c-19 -12 -33 -6 -35 17 -2 10 0 13 3 7 8 -19 34 -16 35 5 1 15 2
15 6 -2 3 -10 -1 -22 -9 -27z m-11728 12 c0 -11 -4 -23 -10 -26 -6 -4 -10 5
-10 19 0 14 5 26 10 26 6 0 10 -9 10 -19z m11587 -23 c-3 -8 -6 -5 -6 6 -1 11
2 17 5 13 3 -3 4 -12 1 -19z m143 -53 c-6 -7 -18 -11 -26 -8 -22 8 -17 22 6
16 15 -4 20 0 21 13 0 11 3 14 6 6 3 -7 0 -19 -7 -27z m-7418 -535 c22 -30 36
-100 19 -100 -6 0 -17 16 -25 35 -10 24 -21 35 -36 35 -30 0 -50 -55 -50 -140
0 -85 20 -140 50 -140 15 0 26 11 36 35 19 47 38 46 31 -2 -8 -46 -37 -87 -64
-91 -85 -13 -115 297 -37 375 29 29 50 27 76 -7z m-747 -10 c17 -34 20 -135 4
-177 -12 -32 -26 -43 -56 -43 -22 0 -23 -4 -23 -66 0 -48 -3 -65 -12 -62 -10
4 -14 50 -16 178 -1 96 0 180 2 187 3 8 22 13 45 13 35 0 43 -4 56 -30z m65
-161 c0 -148 -3 -190 -12 -187 -10 4 -14 50 -16 178 -3 177 -1 200 18 200 6 0
10 -66 10 -191z m1885 169 c9 -42 55 -325 55 -342 0 -19 -19 -22 -25 -3 -2 6
-6 29 -10 50 -6 36 -8 38 -38 35 -29 -3 -32 -7 -39 -47 -8 -48 -12 -56 -26
-48 -7 5 39 322 53 365 7 20 24 14 30 -10z m-805 -43 c0 -22 6 -38 15 -41 8
-4 15 -12 15 -19 0 -7 -7 -18 -15 -25 -22 -18 -21 -152 2 -191 13 -22 14 -32
6 -40 -9 -9 -16 -9 -28 1 -12 10 -15 34 -15 111 0 62 -5 107 -12 119 -10 16
-10 24 0 40 6 11 12 33 12 50 0 16 5 30 10 30 6 0 10 -16 10 -35z m1540 3 c0
-17 7 -39 15 -49 14 -15 14 -18 0 -32 -21 -21 -21 -168 0 -200 19 -29 5 -57
-19 -38 -13 11 -16 35 -16 112 0 62 -5 107 -12 119 -10 16 -10 24 0 40 6 11
12 33 12 50 0 16 5 30 10 30 6 0 10 -14 10 -32z m-2500 -88 c6 -19 10 -52 10
-72 0 -38 0 -38 -40 -38 -37 0 -40 -2 -40 -28 0 -15 5 -33 11 -39 14 -14 39
-6 39 13 0 8 7 14 15 14 18 0 18 -7 4 -48 -11 -32 -40 -49 -60 -36 -22 13 -39
74 -39 138 0 68 11 110 37 138 21 23 50 4 63 -42z m230 29 c12 -22 13 -69 1
-69 -5 0 -11 9 -14 20 -8 31 -37 25 -37 -7 0 -20 8 -33 29 -45 36 -20 49 -70
31 -122 -15 -45 -47 -57 -72 -26 -19 23 -25 70 -9 70 5 0 15 -10 23 -22 17
-26 38 -17 38 18 0 16 -8 28 -24 35 -47 22 -62 106 -26 152 22 28 44 27 60 -4z
m550 -38 c5 -20 10 -51 10 -68 0 -32 -1 -33 -45 -33 -44 0 -45 -1 -39 -27 11
-48 26 -58 45 -34 25 30 41 27 33 -6 -10 -42 -40 -70 -62 -57 -34 21 -43 56
-40 151 3 81 6 94 27 117 23 24 26 25 43 9 10 -9 22 -32 28 -52z m120 23 c6
-14 10 -75 10 -136 0 -105 -1 -110 -20 -105 -11 3 -23 1 -26 -4 -12 -20 -36
-7 -50 28 -12 27 -14 48 -7 77 8 37 18 48 56 60 10 3 17 15 17 30 0 35 -21 44
-38 18 -8 -12 -18 -22 -23 -22 -17 0 -9 47 12 74 17 21 24 24 40 15 11 -5 24
-21 29 -35z m200 -23 c5 -20 10 -51 10 -68 0 -32 -1 -33 -45 -33 -44 0 -45 -1
-39 -27 11 -48 26 -58 45 -34 25 30 41 27 33 -6 -10 -42 -40 -70 -62 -57 -30
19 -42 57 -42 136 0 83 11 124 38 144 23 17 48 -6 62 -55z m520 38 c0 -10 -9
-28 -20 -39 -17 -17 -20 -33 -20 -121 0 -76 -3 -100 -12 -97 -9 3 -14 41 -16
131 l-3 126 28 14 c33 16 43 13 43 -14z m561 -28 c7 -19 9 -70 7 -118 -4 -69
-8 -88 -26 -106 -26 -25 -48 -17 -69 24 -15 29 -17 167 -3 205 24 62 70 60 91
-5z m-2064 19 c8 -16 13 -67 13 -139 0 -98 -2 -112 -15 -107 -9 3 -25 0 -35
-6 -25 -16 -39 -3 -50 47 -12 53 7 107 40 115 28 6 40 45 20 64 -9 8 -16 5
-27 -11 -9 -13 -20 -23 -25 -23 -13 0 -2 58 14 77 17 21 51 12 65 -17z m237 3
c7 -16 15 -50 17 -78 l4 -50 -42 -3 c-44 -3 -52 -16 -37 -56 8 -20 40 -21 48
-1 7 19 26 20 26 0 0 -23 -21 -63 -37 -69 -46 -18 -80 70 -69 177 10 99 58
141 90 80z m316 6 c0 -11 -7 -27 -15 -35 -11 -12 -15 -40 -15 -120 0 -86 -3
-104 -15 -104 -13 0 -15 22 -15 134 0 146 -4 134 53 145 4 0 7 -8 7 -20z m719
-14 c19 -38 20 -169 2 -212 -17 -42 -49 -53 -72 -24 -35 44 -38 196 -4 247 22
33 55 28 74 -11z m536 5 c17 -33 20 -70 5 -70 -6 0 -15 11 -20 25 -21 54 -50
14 -50 -69 0 -30 3 -61 6 -70 9 -23 41 -20 47 4 7 26 27 26 27 0 0 -31 -21
-69 -43 -76 -45 -14 -78 87 -63 194 12 88 60 121 91 62z m119 8 c17 -24 22
-78 8 -78 -5 0 -14 11 -20 25 -14 30 -28 32 -42 6 -11 -21 -13 -103 -4 -138 8
-29 40 -30 49 -3 9 30 25 24 25 -9 0 -65 -63 -92 -88 -37 -27 61 -22 205 10
243 16 20 45 16 62 -9z m388 0 c17 -32 18 -250 1 -255 -10 -4 -13 20 -13 95 0
108 -5 132 -26 132 -18 0 -24 -27 -27 -134 -1 -61 -6 -91 -14 -94 -10 -3 -13
28 -13 131 0 133 0 136 23 140 46 9 57 6 69 -15z m-1221 -78 c7 -49 15 -87 18
-84 3 3 11 41 17 85 12 80 18 98 31 86 7 -8 -32 -272 -48 -324 -14 -45 -49
-54 -49 -12 0 9 7 19 15 23 24 9 20 55 -20 289 -3 19 0 27 9 27 10 0 18 -26
27 -90z m239 -7 c0 -103 8 -130 34 -120 12 5 16 27 18 108 2 71 7 104 16 107
9 3 12 -28 12 -133 0 -130 -1 -136 -19 -130 -11 3 -22 1 -26 -5 -9 -14 -21
-13 -39 6 -13 12 -16 40 -16 140 0 76 4 124 10 124 6 0 10 -39 10 -97z m790
-8 c0 -88 3 -107 16 -112 26 -10 34 17 34 120 0 80 3 97 15 97 13 0 15 -19 13
-132 -3 -117 -5 -133 -20 -133 -9 0 -20 -4 -24 -8 -16 -16 -36 -5 -50 28 -20
50 -20 245 1 245 12 0 15 -18 15 -105z m-1401 -1368 c21 -21 31 13 31 101 0
48 4 82 10 82 14 0 13 -163 -2 -195 -13 -30 -43 -33 -58 -6 -5 11 -9 64 -9
118 l2 98 8 -94 c4 -51 12 -98 18 -104z m198 80 c5 -35 4 -37 -21 -37 -19 0
-26 -5 -26 -18 0 -26 11 -34 28 -20 11 10 13 8 10 -12 -4 -35 -35 -38 -48 -5
-15 40 -12 108 6 134 14 20 18 21 31 9 7 -8 16 -31 20 -51z m123 -41 c0 -56
-3 -76 -10 -66 -5 8 -10 41 -10 73 0 31 -4 57 -10 57 -5 0 -10 -26 -10 -57 0
-32 -5 -65 -10 -73 -7 -10 -10 12 -10 72 0 74 2 87 18 90 33 8 42 -11 42 -96z
m70 5 c0 -70 -2 -77 -20 -78 -43 -3 -51 93 -9 104 21 6 25 18 8 29 -6 3 -15 0
-20 -7 -7 -11 -9 -9 -9 7 0 29 20 47 37 33 9 -8 13 -37 13 -88z m120 -9 c0
-46 -4 -71 -10 -67 -5 3 -10 35 -10 71 0 36 -4 64 -10 64 -6 0 -10 -28 -10
-64 0 -36 -4 -68 -10 -71 -6 -4 -10 20 -10 64 0 40 -4 71 -10 71 -12 0 -19
-28 -23 -95 -2 -29 -4 -12 -5 39 l-2 88 30 -4 c17 -3 34 0 37 5 15 24 33 -31
33 -101z m77 45 c5 -35 4 -37 -21 -37 -19 0 -26 -5 -26 -18 0 -26 11 -34 27
-20 7 6 16 8 19 5 9 -9 -15 -47 -30 -47 -35 0 -47 128 -16 165 18 22 39 1 47
-48z m-477 49 c0 -2 3 -12 7 -21 5 -14 2 -16 -15 -10 -28 8 -29 -8 -2 -35 24
-24 26 -72 4 -91 -14 -11 -18 -10 -30 6 -16 22 -18 35 -4 35 6 0 10 -4 10 -10
0 -5 5 -10 10 -10 17 0 11 35 -10 53 -32 27 -24 87 11 87 10 0 19 -2 19 -4z
m140 -10 c0 -8 -6 -16 -12 -18 -8 -3 -15 -32 -19 -74 l-6 -69 -1 88 c-2 81 -1
87 18 87 11 0 20 -6 20 -14z m4742 -438 c17 -31 24 -598 8 -657 l-11 -41
-4714 0 -4714 0 -10 38 c-14 48 -14 585 -1 631 5 19 15 38 22 43 7 4 2127 8
4710 8 l4697 0 13 -22z m-4862 -840 c0 -16 -3 -19 -11 -11 -6 6 -8 16 -5 22
11 17 16 13 16 -11z m27 -150 c-2 -35 -3 -9 -3 57 0 66 1 94 3 63 2 -32 2 -86
0 -120z m203 57 l0 -115 -24 0 c-29 0 -38 21 -38 92 1 52 16 82 39 74 9 -4 13
4 13 29 0 19 2 35 5 35 3 0 5 -52 5 -115z m88 -5 c-3 -100 -4 -103 -27 -107
-33 -5 -41 11 -41 83 0 62 16 94 40 79 6 -4 10 8 10 31 0 26 3 35 10 28 7 -7
10 -52 8 -114z m-538 95 c0 -8 -9 -15 -20 -15 -16 0 -20 -7 -20 -35 0 -28 4
-35 20 -35 11 0 20 -7 20 -15 0 -8 -9 -15 -20 -15 -16 0 -20 -7 -20 -30 0 -23
4 -30 20 -30 11 0 20 -7 20 -15 0 -10 -10 -15 -30 -15 l-30 0 0 110 0 110 30
0 c20 0 30 -5 30 -15z m358 -47 c23 -135 25 -161 13 -154 -6 4 -11 18 -11 32
0 17 -5 24 -20 24 -15 0 -20 -7 -20 -24 0 -14 -5 -28 -11 -32 -9 -5 -10 7 -5
42 17 115 29 174 36 174 4 0 13 -28 18 -62z m-247 -13 c11 -30 11 -145 -1
-145 -6 0 -10 28 -10 65 0 104 -22 81 -33 -35 -2 -19 -5 -4 -5 33 -3 90 -25
87 -33 -4 l-6 -64 -1 82 c-2 87 0 91 52 89 19 -1 32 -8 37 -21z m69 6 c5 -11
10 -50 10 -86 l0 -66 -27 3 c-24 3 -28 8 -31 40 -2 29 2 40 17 50 28 17 28 42
1 33 -23 -7 -28 13 -8 33 17 17 26 15 38 -7z m401 -14 c-6 -6 -11 -39 -11 -74
0 -35 -4 -63 -10 -63 -6 0 -10 33 -10 79 0 68 3 80 18 83 21 4 28 -10 13 -25z
m69 14 c5 -11 10 -33 10 -50 0 -23 -5 -31 -18 -31 -24 0 -32 -8 -25 -26 3 -9
13 -12 24 -9 21 7 22 5 13 -19 -3 -9 -14 -16 -24 -16 -25 0 -44 60 -35 108 11
60 35 79 55 43z m70 0 c15 -28 13 -33 -10 -26 -13 4 -20 2 -20 -7 0 -8 9 -21
20 -31 32 -27 24 -87 -11 -87 -10 0 -19 2 -19 4 0 2 -3 12 -7 21 -5 14 -2 16
15 10 29 -8 29 15 2 40 -11 10 -20 27 -20 37 0 24 18 58 30 58 5 0 14 -9 20
-19z m68 -11 c3 -21 2 -22 -12 -11 -14 12 -16 11 -16 -6 0 -10 9 -26 20 -36
23 -20 26 -46 6 -72 -15 -21 -46 -14 -46 10 0 12 6 15 20 10 13 -4 20 -2 20 7
0 8 -9 21 -20 31 -22 19 -27 66 -8 85 17 17 32 10 36 -18z m-568 -61 c0 -51
-4 -78 -10 -74 -5 3 -10 40 -10 81 0 43 4 74 10 74 6 0 10 -34 10 -81z m4861
-366 c18 -21 26 -600 9 -662 l-11 -41 -4714 0 -4715 0 -7 28 c-5 15 -8 169 -8
343 0 253 3 319 14 332 12 16 355 17 4716 17 4360 0 4704 -1 4716 -17z m-4443
-935 c-3 -102 -5 -111 -23 -114 -34 -5 -45 15 -45 81 0 63 16 95 40 80 6 -4
10 7 10 29 0 20 5 36 10 36 7 0 10 -40 8 -112z m-518 83 c22 -42 6 -121 -25
-121 -10 0 -15 -10 -15 -27 0 -16 -5 -35 -10 -43 -7 -10 -10 21 -10 98 l0 112
25 0 c14 0 29 -8 35 -19z m71 -61 c4 -14 7 -46 8 -72 1 -39 -3 -49 -21 -59
-18 -10 -24 -8 -35 7 -7 10 -13 24 -13 32 0 23 20 52 35 52 8 0 15 6 15 13 0
21 -12 28 -27 16 -10 -9 -13 -7 -13 8 0 41 40 44 51 3z m67 0 c2 -19 1 -22 -7
-10 -5 8 -13 11 -18 7 -4 -4 -2 -16 5 -25 30 -42 35 -61 23 -88 -14 -32 -45
-28 -49 6 -3 20 -1 23 9 13 7 -7 17 -13 21 -13 15 0 8 27 -12 45 -20 18 -25
49 -14 80 10 24 39 14 42 -15z m70 0 c3 -20 2 -22 -11 -12 -23 20 -31 -4 -8
-25 27 -25 35 -64 18 -87 -18 -24 -47 -15 -47 15 0 17 3 19 14 10 24 -20 30 8
7 33 -20 21 -29 75 -14 90 14 14 38 0 41 -24z m33 -23 l1 -42 12 48 c12 50 26
54 26 6 0 -15 5 -31 10 -34 6 -4 10 8 10 29 0 19 5 38 11 41 7 5 9 -4 5 -27
-3 -18 -8 -54 -11 -80 -6 -48 -25 -67 -25 -25 0 12 -5 29 -10 37 -7 12 -10 8
-10 -15 0 -45 -16 -65 -24 -29 -14 76 -18 147 -7 140 6 -4 12 -26 12 -49z
m139 34 c5 -11 10 -41 10 -66 0 -78 -39 -116 -60 -59 -30 78 15 190 50 125z
m65 7 c3 -3 -1 -11 -10 -18 -10 -9 -15 -31 -15 -71 0 -33 -4 -59 -10 -59 -10
0 -14 142 -4 152 6 7 31 4 39 -4z m101 -35 c-11 -11 -19 6 -11 24 8 17 8 17
12 0 3 -10 2 -21 -1 -24z m4 -104 c0 -11 -4 -17 -10 -14 -5 3 -10 13 -10 21 0
8 5 14 10 14 6 0 10 -9 10 -21z m4412 -301 c19 -34 19 -668 -1 -691 -12 -16
-354 -17 -4717 -17 l-4703 0 -13 23 c-20 34 -19 644 1 680 l14 27 4703 0 4703
0 13 -22z m-4994 -857 c-11 -18 -11 -23 2 -31 12 -7 12 -12 2 -22 -7 -7 -13
-42 -14 -82 l-1 -71 -7 70 c-3 39 -8 75 -10 80 -2 6 0 24 4 40 14 56 16 59 27
48 7 -7 7 -17 -3 -32z m29 7 c-3 -7 -5 -2 -5 12 0 14 2 19 5 13 2 -7 2 -19 0
-25z m803 -86 l0 -118 -26 1 c-32 0 -42 21 -43 85 -1 46 22 95 40 85 5 -4 9 7
9 23 0 25 7 42 17 42 2 0 3 -53 3 -118z m-1040 89 c5 -11 10 -30 10 -43 -1
-22 -1 -22 -16 5 -12 23 -18 26 -30 16 -16 -13 -20 -125 -4 -149 9 -13 13 -11
30 10 16 21 20 22 20 7 1 -61 -52 -77 -70 -21 -15 44 -9 156 9 178 18 21 38
20 51 -3z m520 0 c23 -44 6 -131 -25 -131 -10 0 -15 -11 -15 -35 0 -19 -4 -35
-10 -35 -11 0 -14 202 -3 213 13 14 43 7 53 -12z m-446 -47 c11 -10 16 -34 16
-70 0 -92 -37 -128 -60 -58 -13 38 -7 109 12 131 13 16 13 16 32 -3z m301 6
c5 8 11 8 21 -1 10 -8 14 -34 13 -93 0 -90 -17 -80 -18 12 -1 33 -5 51 -11 47
-5 -3 -10 -33 -10 -65 0 -32 -4 -62 -10 -65 -6 -4 -10 20 -10 64 0 41 -4 71
-10 71 -5 0 -10 -26 -10 -57 0 -32 -5 -65 -10 -73 -7 -10 -10 12 -10 72 0 74
2 87 18 90 9 3 22 1 29 -4 7 -5 14 -5 18 2z m539 -55 c8 -43 -10 -115 -29
-115 -22 0 -35 34 -35 94 0 38 5 60 17 71 15 16 17 16 29 1 6 -10 15 -32 18
-51z m-754 29 c13 -33 13 -131 0 -139 -5 -3 -10 22 -12 60 -4 87 -22 89 -26 2
-2 -40 -7 -65 -12 -62 -11 7 -14 148 -3 158 15 16 44 6 53 -19z m77 -107 c-2
-23 -3 -1 -3 48 0 50 1 68 3 42 2 -26 2 -67 0 -90z m63 119 c0 -8 -5 -16 -12
-18 -6 -2 -14 -35 -18 -74 l-7 -69 -2 88 c-1 81 0 87 19 87 11 0 20 -6 20 -14z
m294 -2 c3 -9 6 -46 6 -83 0 -62 -2 -67 -22 -68 -28 -2 -38 12 -38 54 0 22 7
37 20 45 26 17 27 41 1 33 -16 -5 -18 -2 -14 15 6 24 38 27 47 4z m66 12 c0
-2 3 -12 7 -21 5 -14 2 -16 -15 -10 -29 8 -30 -15 -2 -33 30 -19 26 -102 -6
-102 -16 0 -39 39 -28 48 4 4 9 1 11 -5 7 -20 23 -15 23 7 0 11 -6 23 -14 26
-33 13 -25 94 9 94 8 0 15 -2 15 -4z m70 0 c0 -2 3 -12 7 -21 5 -14 2 -16 -15
-10 -29 8 -29 -15 -2 -40 22 -20 25 -46 10 -76 -14 -25 -37 -24 -45 2 -7 22 5
43 12 22 7 -19 23 -16 23 5 0 10 -9 25 -20 35 -32 27 -24 87 11 87 10 0 19 -2
19 -4z m43 -73 c4 -3 7 10 7 30 0 49 18 56 25 10 9 -55 13 -62 15 -28 1 17 5
39 10 50 6 13 7 -7 3 -55 -7 -93 -19 -120 -28 -65 -10 62 -12 63 -20 13 -4
-27 -11 -48 -15 -48 -8 0 -20 88 -19 140 l1 35 8 -38 c4 -20 10 -40 13 -44z
m197 62 c0 -7 -6 -15 -12 -17 -8 -3 -15 -32 -19 -74 l-6 -69 -1 85 c-2 79 0
86 18 87 11 1 20 -4 20 -12z m4218 -423 c7 -5 17 -24 22 -43 13 -46 13 -583
-1 -631 l-10 -38 -4714 0 -4714 0 -10 38 c-14 48 -14 585 -1 631 5 19 15 38
22 43 17 10 9389 10 9406 0z m-5183 -1522 c17 -33 20 -80 4 -80 -5 0 -15 14
-20 30 -22 60 -49 21 -49 -69 0 -32 3 -66 6 -75 10 -26 41 -19 48 10 5 20 10
24 18 16 16 -16 -1 -82 -24 -96 -26 -16 -50 3 -66 50 -18 52 -11 183 12 218
22 35 52 33 71 -4z m506 28 c0 -2 9 -52 19 -113 12 -76 18 -97 19 -67 1 53 25
112 45 112 9 0 23 -11 32 -25 l17 -26 11 23 c15 29 48 30 61 1 11 -26 25 -30
25 -9 0 7 7 19 16 27 21 18 44 2 60 -42 l12 -34 1 38 c2 69 20 38 23 -40 2
-50 7 -78 16 -81 9 -3 12 15 12 66 0 75 7 105 21 96 5 -3 9 -52 9 -108 l0
-104 -27 -5 c-36 -7 -53 8 -54 47 l-1 31 -12 -34 c-16 -44 -39 -60 -60 -42 -9
8 -16 20 -16 27 0 21 -14 17 -25 -8 -13 -30 -46 -29 -61 0 l-11 23 -17 -26
c-22 -34 -44 -32 -62 8 -14 29 -15 30 -9 5 4 -20 1 -28 -9 -28 -15 0 -26 21
-26 51 0 12 -7 19 -20 19 -14 0 -21 -9 -26 -35 -3 -20 -12 -35 -20 -35 -8 0
-14 3 -14 6 0 13 41 249 46 267 4 14 22 24 25 15z m-211 -59 c0 -25 26 -44 34
-24 17 45 66 -8 66 -72 0 -41 -1 -43 -30 -43 -19 0 -30 -5 -30 -14 0 -21 20
-30 33 -17 17 17 27 13 27 -12 0 -30 -32 -60 -54 -51 -9 3 -16 11 -16 17 0 6
-6 2 -14 -9 -13 -17 -16 -17 -30 -4 -11 11 -16 44 -18 130 -3 114 5 157 23
129 5 -8 9 -21 9 -30z m752 -80 c-1 -54 2 -107 7 -117 15 -28 -2 -48 -23 -27
-12 12 -16 35 -16 90 0 41 -4 77 -10 80 -6 4 -10 -27 -10 -84 0 -54 -4 -91
-10 -91 -6 0 -10 33 -10 80 0 63 -3 80 -15 80 -11 0 -15 -18 -17 -77 -2 -51
-7 -78 -16 -81 -10 -3 -12 20 -10 104 3 106 3 107 28 109 14 2 31 -2 38 -8 15
-12 32 6 32 34 0 22 12 31 24 19 7 -7 10 -50 8 -111z m-972 47 c0 -12 -4 -26
-10 -32 -5 -5 -10 -42 -12 -83 -2 -48 -7 -76 -15 -79 -10 -3 -13 22 -13 101 0
57 2 106 5 108 2 3 13 5 25 6 15 1 20 -4 20 -21z m76 -11 c7 -19 14 -47 15
-62 0 -15 3 -22 6 -15 3 7 16 17 29 22 27 10 32 30 9 30 -8 0 -15 -4 -15 -10
0 -5 -5 -10 -11 -10 -17 0 -6 62 13 74 33 21 50 -13 56 -113 5 -90 5 -90 -22
-100 -32 -13 -53 -5 -62 21 -6 19 -6 19 -18 -3 -15 -31 -47 -31 -63 1 -18 35
-16 135 2 170 21 40 43 38 61 -5z"/>
<path d="M136 9614 c-9 -24 -7 -54 4 -54 6 0 10 16 10 35 0 38 -4 44 -14 19z"/>
<path d="M821 9602 c-6 -11 -11 -36 -11 -54 0 -40 23 -78 34 -59 12 18 11 95
-1 116 -10 17 -11 17 -22 -3z"/>
<path d="M13990 9631 c0 -35 3 -41 21 -41 17 0 20 5 17 37 -2 27 -8 39 -20 41
-15 3 -18 -4 -18 -37z"/>
<path d="M266 9595 c-9 -24 -8 -25 15 -25 14 0 19 5 17 17 -4 23 -24 27 -32 8z"/>
<path d="M725 9597 c-11 -43 -1 -112 15 -112 11 0 16 13 18 44 4 51 -4 91 -18
91 -5 0 -12 -10 -15 -23z"/>
<path d="M1051 9602 c-22 -41 -8 -124 18 -108 13 8 15 95 2 115 -7 11 -11 10
-20 -7z"/>
<path d="M1324 9515 c-10 -25 7 -40 23 -20 7 11 13 22 13 27 0 14 -30 9 -36
-7z"/>
<path d="M1556 9595 c-9 -24 -8 -25 15 -25 14 0 19 5 17 17 -4 23 -24 27 -32
8z"/>
<path d="M2005 9598 c-9 -24 -2 -93 10 -93 14 0 19 85 6 98 -7 7 -12 5 -16 -5z"/>
<path d="M2196 9603 c-11 -11 -6 -23 9 -23 8 0 15 4 15 9 0 13 -16 22 -24 14z"/>
<path d="M13664 9596 c-10 -27 0 -81 16 -81 11 0 16 13 18 48 2 37 0 47 -13
47 -8 0 -18 -6 -21 -14z"/>
<path d="M14072 9588 c2 -12 10 -23 18 -23 22 0 19 39 -3 43 -15 3 -18 -1 -15
-20z"/>
<path d="M14372 9588 c2 -12 10 -23 18 -23 22 0 19 39 -3 43 -15 3 -18 -1 -15
-20z"/>
<path d="M5940 8800 c0 -74 14 -96 45 -70 39 32 23 132 -23 138 -21 3 -22 0
-22 -68z"/>
<path d="M7935 8760 c-8 -66 -5 -76 20 -66 13 5 15 15 9 58 -9 76 -21 79 -29
8z"/>
<path d="M6136 8754 c-12 -31 -6 -44 19 -44 25 0 31 13 19 44 -3 9 -12 16 -19
16 -7 0 -16 -7 -19 -16z"/>
<path d="M6916 8754 c-12 -31 -6 -44 19 -44 25 0 31 13 19 44 -3 9 -12 16 -19
16 -7 0 -16 -7 -19 -16z"/>
<path d="M7042 8648 c-16 -16 -15 -43 2 -57 12 -10 17 -8 25 8 24 44 4 80 -27
49z"/>
<path d="M7236 8754 c-12 -31 -6 -44 19 -44 25 0 31 13 19 44 -3 9 -12 16 -19
16 -7 0 -16 -7 -19 -16z"/>
<path d="M8309 8728 c-16 -60 -2 -133 26 -133 28 0 43 78 26 135 -16 52 -37
51 -52 -2z"/>
<path d="M6262 8648 c-16 -16 -15 -43 1 -57 19 -15 37 5 37 41 0 30 -17 37
-38 16z"/>
<path d="M6500 8751 c-16 -32 -12 -41 20 -41 34 0 34 -1 20 34 -11 31 -25 33
-40 7z"/>
<path d="M7532 8758 c-12 -12 -17 -124 -6 -152 9 -24 41 -19 48 7 9 35 7 117
-4 138 -12 22 -21 24 -38 7z"/>
<path d="M7196 7433 c-11 -11 -6 -23 9 -23 8 0 15 4 15 9 0 13 -16 22 -24 14z"/>
<path d="M7397 7373 c-10 -9 -9 -43 2 -43 13 0 23 32 13 42 -5 5 -11 5 -15 1z"/>
<path d="M7586 7433 c-11 -11 -6 -23 9 -23 8 0 15 4 15 9 0 13 -16 22 -24 14z"/>
<path d="M3041 6748 c-1 -16 4 -28 9 -28 12 0 12 8 0 35 -8 18 -9 17 -9 -7z"/>
<path d="M3100 6693 c0 -58 -3 -74 -11 -63 -8 11 -9 9 -3 -10 17 -63 23 -50
24 48 0 56 -2 102 -5 102 -3 0 -5 -35 -5 -77z"/>
<path d="M2816 6712 c-2 -4 4 -8 14 -8 10 0 16 4 14 8 -3 4 -9 8 -14 8 -5 0
-11 -4 -14 -8z"/>
<path d="M2887 6713 c-4 -3 -7 -11 -7 -17 0 -6 5 -4 10 4 9 13 11 13 20 0 14
-22 12 -50 -5 -50 -7 0 -19 8 -24 18 -8 13 -10 7 -9 -28 0 -25 3 -35 5 -22 3
14 12 22 24 22 25 0 35 25 21 56 -12 24 -23 30 -35 17z"/>
<path d="M2962 6711 c-8 -5 -12 -16 -10 -25 2 -12 6 -10 15 9 6 14 10 25 10
25 -1 0 -8 -4 -15 -9z"/>
<path d="M3144 6709 c-5 -8 -3 -9 6 -4 7 4 16 2 22 -6 8 -12 9 -12 6 0 -6 20
-24 25 -34 10z"/>
<path d="M3243 6696 c12 -24 12 -24 20 -4 6 17 10 18 22 8 13 -11 14 -10 9 4
-7 18 -20 21 -29 6 -5 -8 -11 -7 -20 0 -12 10 -12 7 -2 -14z"/>
<path d="M3334 6708 c-4 -7 -4 -10 1 -6 4 4 15 2 23 -5 12 -10 14 -9 11 2 -7
20 -26 25 -35 9z"/>
<path d="M3321 6648 c0 -25 2 -53 5 -62 6 -17 44 -23 44 -7 0 5 -8 8 -17 7
-12 -1 -19 7 -21 26 -3 21 1 27 19 30 12 2 24 10 27 18 4 12 2 13 -9 3 -20
-20 -37 -15 -42 10 -2 12 -5 1 -6 -25z"/>
<path d="M2810 6663 c0 -5 9 -18 20 -28 11 -10 20 -14 20 -8 0 5 -9 18 -20 28
-11 10 -20 14 -20 8z"/>
<path d="M3158 6653 c-9 -2 -19 -11 -22 -20 -5 -13 -4 -14 8 -4 8 7 20 10 26
6 5 -3 10 1 10 9 0 9 -1 15 -2 15 -2 -1 -10 -3 -20 -6z"/>
<path d="M2711 6630 c-2 -37 12 -60 35 -60 13 0 24 4 24 9 0 5 -9 7 -19 4 -16
-4 -22 2 -30 28 -5 19 -10 27 -10 19z"/>
<path d="M2771 6614 c0 -11 3 -14 6 -6 3 7 2 16 -1 19 -3 4 -6 -2 -5 -13z"/>
<path d="M3170 6595 c0 -17 -26 -21 -33 -5 -3 6 -4 5 -3 -2 1 -7 12 -14 24
-16 17 -3 22 2 22 17 0 12 -2 21 -5 21 -3 0 -5 -7 -5 -15z"/>
<path d="M2810 6578 c0 -4 9 -8 20 -8 11 0 20 4 20 8 0 4 -9 8 -20 8 -11 0
-20 -4 -20 -8z"/>
<path d="M2880 6578 c0 -4 9 -8 20 -8 11 0 20 4 20 8 0 4 -9 8 -20 8 -11 0
-20 -4 -20 -8z"/>
<path d="M7354 6075 c-7 -30 2 -75 16 -75 5 0 12 11 16 25 7 30 -2 75 -16 75
-5 0 -12 -11 -16 -25z"/>
<path d="M7434 6076 c-7 -30 2 -76 16 -76 12 0 23 41 18 71 -4 32 -26 35 -34
5z"/>
<path d="M7280 6085 c0 -14 5 -25 10 -25 6 0 10 11 10 25 0 14 -4 25 -10 25
-5 0 -10 -11 -10 -25z"/>
<path d="M7100 6020 c0 -11 5 -20 10 -20 6 0 10 9 10 20 0 11 -4 20 -10 20 -5
0 -10 -9 -10 -20z"/>
<path d="M7567 6094 c-8 -8 1 -24 14 -24 5 0 9 7 9 15 0 15 -12 20 -23 9z"/>
<path d="M2710 5426 c0 -9 8 -12 25 -8 14 2 25 8 25 13 0 5 -11 9 -25 9 -14 0
-25 -6 -25 -14z"/>
<path d="M3102 5420 c0 -14 2 -19 5 -12 2 6 2 18 0 25 -3 6 -5 1 -5 -13z"/>
<path d="M2824 5354 c11 -22 11 -22 18 -3 14 37 28 9 30 -59 2 -66 2 -67 5
-13 6 79 -1 98 -35 98 -26 0 -28 -2 -18 -23z"/>
<path d="M2910 5371 c0 -6 6 -8 14 -5 8 3 16 -2 20 -13 4 -15 5 -15 3 2 -2 20
-37 35 -37 16z"/>
<path d="M3167 5373 c-4 -3 -7 -13 -7 -22 1 -13 2 -13 11 2 8 14 14 16 25 6 8
-7 14 -7 14 -1 0 5 -7 13 -16 16 -19 7 -19 7 -27 -1z"/>
<path d="M3246 5364 c-3 -9 -6 -21 -5 -27 0 -7 4 -2 10 11 10 26 26 21 39 -12
9 -20 9 -20 9 0 2 37 -41 60 -53 28z"/>
<path d="M3322 5301 l2 -76 3 65 c2 35 8 69 13 75 7 8 5 12 -5 12 -12 0 -15
-15 -13 -76z"/>
<path d="M3376 5364 c-9 -24 -7 -31 5 -11 13 23 29 13 29 -19 0 -25 -24 -34
-33 -11 -3 7 -6 5 -6 -5 -1 -13 7 -18 24 -18 20 0 25 5 25 24 0 34 -10 56 -25
56 -7 0 -16 -7 -19 -16z"/>
<path d="M3446 5364 c-3 -9 -6 -21 -5 -27 0 -7 5 -1 10 12 6 15 14 21 25 17 8
-3 12 -2 9 4 -9 15 -32 12 -39 -6z"/>
<path d="M3520 5376 c0 -2 7 -6 15 -10 8 -3 15 -1 15 4 0 6 -7 10 -15 10 -8 0
-15 -2 -15 -4z"/>
<path d="M2791 5354 c0 -11 3 -14 6 -6 3 7 2 16 -1 19 -3 4 -6 -2 -5 -13z"/>
<path d="M2711 5335 c0 -16 3 -25 7 -19 4 7 16 14 27 17 19 4 19 5 -2 6 -12 0
-24 7 -26 14 -3 6 -6 -1 -6 -18z"/>
<path d="M3511 5344 c0 -11 8 -29 19 -39 30 -28 24 -79 -7 -53 -11 8 -12 7 -7
-6 8 -20 30 -21 38 0 10 26 7 42 -13 61 -10 10 -21 27 -24 38 -4 19 -5 19 -6
-1z"/>
<path d="M3120 5325 c0 -18 -26 -20 -33 -2 -3 6 -6 0 -6 -14 -1 -23 2 -26 24
-21 18 3 25 11 25 28 0 13 -2 24 -5 24 -3 0 -5 -7 -5 -15z"/>
<path d="M2940 5321 c0 -5 -9 -11 -20 -14 -14 -4 -20 -14 -20 -35 0 -17 4 -33
9 -36 17 -11 41 6 40 28 0 20 -1 20 -10 -2 -11 -29 -29 -20 -29 15 0 20 4 24
20 20 15 -4 20 0 20 14 0 10 -2 19 -5 19 -3 0 -5 -4 -5 -9z"/>
<path d="M3463 5307 c17 -14 23 -48 10 -60 -3 -4 -12 -2 -20 5 -11 8 -12 7 -7
-6 8 -20 30 -21 38 0 12 30 6 53 -16 64 -21 10 -21 10 -5 -3z"/>
<path d="M3287 5270 c-6 -25 -34 -27 -40 -2 -3 12 -5 13 -6 2 -1 -24 14 -41
32 -34 16 6 33 41 24 50 -2 3 -7 -4 -10 -16z"/>
<path d="M3071 5254 c0 -11 3 -14 6 -6 3 7 2 16 -1 19 -3 4 -6 -2 -5 -13z"/>
<path d="M3161 5265 c0 -5 3 -16 7 -23 11 -17 42 -4 41 17 0 10 -2 11 -6 4 -2
-7 -11 -13 -18 -13 -7 0 -16 6 -18 13 -3 6 -6 8 -6 2z"/>
<path d="M3374 5257 c3 -10 6 -21 6 -23 0 -12 29 -2 34 12 5 14 4 15 -8 5 -11
-10 -17 -8 -26 6 -11 17 -11 17 -6 0z"/>
<path d="M2710 5244 c0 -8 11 -14 25 -14 14 0 25 4 25 9 0 5 -11 11 -25 13
-17 4 -25 1 -25 -8z"/>
<path d="M7541 4752 c-6 -11 -11 -28 -11 -37 0 -9 5 -26 11 -37 9 -17 13 -18
20 -7 5 8 9 28 9 44 0 17 -4 36 -9 44 -7 11 -11 10 -20 -7z"/>
<path d="M7029 4816 c-6 -39 -1 -71 12 -71 18 0 20 66 2 73 -7 2 -13 1 -14 -2z"/>
<path d="M7102 4684 c4 -21 22 -23 26 -1 2 10 -3 17 -13 17 -10 0 -15 -6 -13
-16z"/>
<path d="M7415 4758 c-9 -24 -2 -93 10 -93 14 0 19 85 6 98 -7 7 -12 5 -16 -5z"/>
<path d="M2710 4083 c0 -15 2 -15 9 -4 5 8 16 11 26 8 9 -4 14 -3 10 3 -11 17
-45 11 -45 -7z"/>
<path d="M2797 4036 c-4 -10 0 -12 14 -9 10 3 16 9 13 14 -8 13 -21 11 -27 -5z"/>
<path d="M2872 4038 c-19 -19 -14 -56 8 -70 19 -12 27 -48 13 -61 -3 -4 -13
-1 -22 6 -14 11 -14 10 -2 -6 10 -13 17 -15 27 -6 20 17 17 53 -6 74 -32 29
-24 78 9 52 14 -11 14 -10 2 6 -16 20 -14 20 -29 5z"/>
<path d="M2936 4034 c-5 -14 -4 -15 8 -5 10 8 16 9 19 1 3 -6 4 -5 3 2 -4 19
-23 20 -30 2z"/>
<path d="M3106 4034 c-4 -9 -4 -19 -1 -22 3 -3 5 0 5 6 0 19 30 14 31 -5 0
-12 2 -13 6 -5 5 13 -13 42 -27 42 -4 0 -11 -7 -14 -16z"/>
<path d="M3230 4030 c-6 -10 -10 -27 -9 -37 1 -12 3 -10 8 7 4 14 13 25 21 25
8 0 17 -11 21 -25 7 -24 7 -23 8 6 1 38 -33 54 -49 24z"/>
<path d="M3032 4020 c0 -14 2 -19 5 -12 2 6 2 18 0 25 -3 6 -5 1 -5 -13z"/>
<path d="M3180 4025 c0 -8 2 -15 4 -15 2 0 6 7 10 15 3 8 1 15 -4 15 -6 0 -10
-7 -10 -15z"/>
<path d="M2710 3980 c0 -13 6 -17 20 -13 31 8 33 20 5 25 -19 4 -25 1 -25 -12z"/>
<path d="M2930 3995 c0 -4 11 -20 25 -37 14 -16 25 -25 25 -19 0 5 -11 22 -25
37 -14 15 -25 24 -25 19z"/>
<path d="M3092 3970 c0 -19 2 -27 5 -17 2 9 2 25 0 35 -3 9 -5 1 -5 -18z"/>
<path d="M2813 3978 c-13 -6 -23 -15 -23 -21 0 -5 7 -4 15 3 8 6 19 9 25 5 5
-3 10 1 10 9 0 9 -1 16 -2 15 -2 0 -13 -5 -25 -11z"/>
<path d="M3221 3944 c-1 -27 23 -61 33 -45 4 6 12 9 17 6 5 -4 9 9 8 27 -1 30
-2 31 -8 8 -4 -14 -13 -25 -21 -25 -8 0 -17 11 -21 25 -6 21 -7 22 -8 4z"/>
<path d="M3057 3943 c-4 -3 -7 -16 -6 -27 0 -19 1 -19 10 3 10 24 8 36 -4 24z"/>
<path d="M2826 3924 c-4 -9 -13 -14 -21 -10 -8 3 -15 1 -15 -4 0 -14 18 -21
25 -10 4 6 11 8 16 5 5 -4 9 3 9 14 0 25 -6 27 -14 5z"/>
<path d="M3133 3923 c-10 -16 -13 -16 -22 -3 -6 8 -11 10 -11 4 0 -6 6 -17 14
-23 10 -9 16 -8 26 4 6 8 10 19 8 25 -1 5 -8 2 -15 -7z"/>
<path d="M3011 3914 c0 -11 3 -14 6 -6 3 7 2 16 -1 19 -3 4 -6 -2 -5 -13z"/>
<path d="M2930 3908 c0 -4 9 -8 20 -8 11 0 20 4 20 8 0 4 -9 8 -20 8 -11 0
-20 -4 -20 -8z"/>
<path d="M7825 3418 c-9 -24 -2 -93 10 -93 14 0 19 85 6 98 -7 7 -12 5 -16 -5z"/>
<path d="M7310 3444 c0 -30 4 -44 12 -42 17 6 26 40 17 66 -14 37 -29 25 -29
-24z"/>
<path d="M6877 3423 c-10 -10 -8 -76 3 -93 7 -11 11 -8 20 15 17 44 0 101 -23
78z"/>
<path d="M7695 3409 c-8 -25 2 -89 14 -89 11 0 21 26 21 55 0 51 -23 73 -35
34z"/>
<path d="M7393 3358 c-7 -8 -8 -19 -3 -28 8 -12 10 -12 15 2 10 26 2 43 -12
26z"/>
<path d="M2732 2758 c-8 -10 -5 -13 13 -13 18 0 21 3 13 13 -6 6 -12 12 -13
12 -1 0 -7 -6 -13 -12z"/>
<path d="M3800 2734 c0 -27 -4 -35 -14 -31 -19 8 -36 -13 -35 -42 1 -21 2 -22
6 -6 10 45 12 48 28 35 16 -14 20 -86 6 -109 -13 -20 -31 -4 -32 27 0 15 -3
21 -6 14 -3 -7 -2 -24 1 -37 5 -19 12 -24 31 -23 25 2 25 3 25 105 0 57 -2
103 -5 103 -3 0 -5 -16 -5 -36z"/>
<path d="M3242 2658 c1 -57 3 -84 5 -60 3 33 8 42 23 42 20 0 30 19 30 60 0
44 -10 60 -36 60 -24 0 -24 -1 -22 -102z m36 83 c20 -12 12 -85 -10 -89 -15
-3 -18 4 -18 47 0 51 4 58 28 42z"/>
<path d="M2711 2714 c0 -11 3 -14 6 -6 3 7 2 16 -1 19 -3 4 -6 -2 -5 -13z"/>
<path d="M2958 2718 c-3 -7 -2 -22 2 -32 6 -19 7 -19 12 1 7 25 -6 53 -14 31z"/>
<path d="M2810 2691 c-5 -11 -9 -39 -9 -63 l2 -43 6 52 c7 53 15 72 28 59 4
-4 10 -31 14 -59 l6 -52 2 43 c1 44 -12 82 -29 82 -5 0 -14 -9 -20 -19z"/>
<path d="M2893 2703 c-9 -3 -12 -26 -11 -71 l2 -67 3 60 c4 65 17 90 34 65 9
-12 10 -12 7 -1 -5 17 -17 22 -35 14z"/>
<path d="M3050 2700 c-8 -5 -12 -12 -9 -15 4 -3 12 1 19 10 14 17 11 19 -10 5z"/>
<path d="M3120 2693 c12 -19 15 -20 26 -6 10 15 12 14 22 -3 6 -10 11 -14 12
-9 0 6 -5 17 -10 25 -7 12 -12 12 -21 3 -10 -10 -16 -10 -27 0 -13 10 -14 9
-2 -10z"/>
<path d="M3327 2703 c-13 -12 -7 -25 6 -14 8 6 18 7 22 3 5 -4 5 -1 1 6 -8 13
-19 16 -29 5z"/>
<path d="M3396 2694 c-10 -27 -7 -40 19 -68 14 -15 25 -23 25 -18 0 5 -9 17
-20 27 -22 20 -23 62 -2 57 8 -1 11 2 7 8 -9 15 -22 12 -29 -6z"/>
<path d="M3465 2699 c-4 -6 -4 -13 -1 -16 3 -4 6 -1 6 6 0 8 6 11 16 7 8 -3
12 -2 9 4 -8 13 -22 13 -30 -1z"/>
<path d="M3637 2703 c-14 -13 -7 -25 8 -13 12 10 16 8 24 -11 6 -14 10 -18 10
-8 1 25 -27 47 -42 32z"/>
<path d="M3091 2684 c0 -11 3 -14 6 -6 3 7 2 16 -1 19 -3 4 -6 -2 -5 -13z"/>
<path d="M3562 2680 c0 -14 2 -19 5 -12 2 6 2 18 0 25 -3 6 -5 1 -5 -13z"/>
<path d="M3710 2689 c0 -5 5 -7 10 -4 6 3 10 8 10 11 0 2 -4 4 -10 4 -5 0 -10
-5 -10 -11z"/>
<path d="M3362 2663 c-1 -13 -8 -23 -16 -23 -8 0 -17 -4 -20 -9 -4 -5 3 -7 15
-4 18 5 20 2 17 -23 -2 -20 -8 -29 -20 -28 -10 1 -18 -2 -18 -7 0 -11 21 -11
38 0 9 5 12 25 9 62 -2 30 -4 44 -5 32z"/>
<path d="M3460 2653 c0 -7 9 -18 21 -27 24 -17 22 -52 -4 -50 -9 1 -17 -2 -17
-7 0 -5 9 -9 20 -9 34 0 38 47 6 78 -14 15 -26 21 -26 15z"/>
<path d="M3622 2630 c0 -19 2 -27 5 -17 2 9 2 25 0 35 -3 9 -5 1 -5 -18z"/>
<path d="M2711 2612 c-3 -42 49 -71 63 -36 9 24 7 31 -5 12 -15 -26 -36 -22
-47 10 -6 15 -11 21 -11 14z"/>
<path d="M3670 2597 c0 -22 -20 -32 -32 -16 -8 12 -9 11 -5 -1 6 -24 35 -24
42 0 4 12 4 24 1 27 -3 4 -6 -1 -6 -10z"/>
<path d="M3542 2580 c0 -14 2 -19 5 -12 2 6 2 18 0 25 -3 6 -5 1 -5 -13z"/>
<path d="M3582 2580 c0 -14 2 -19 5 -12 2 6 2 18 0 25 -3 6 -5 1 -5 -13z"/>
<path d="M2810 2568 c0 -4 9 -8 20 -8 11 0 20 4 20 8 0 4 -9 8 -20 8 -11 0
-20 -4 -20 -8z"/>
<path d="M3398 2568 c5 -5 16 -8 23 -6 8 3 3 7 -10 11 -17 4 -21 3 -13 -5z"/>
<path d="M7320 1386 c0 -22 3 -27 11 -19 8 8 8 16 0 30 -9 16 -10 14 -11 -11z"/>
<path d="M7417 1396 c-10 -26 -8 -104 2 -111 6 -3 15 4 21 15 6 11 15 18 21
15 5 -4 9 9 9 29 0 20 -4 35 -9 34 -5 -2 -16 6 -24 16 -13 17 -14 18 -20 2z"/>
<path d="M7507 1404 c-10 -11 -9 -112 2 -119 6 -3 15 4 21 15 6 11 15 18 21
15 5 -4 9 9 9 29 0 20 -4 35 -9 34 -5 -2 -16 5 -23 15 -7 10 -17 15 -21 11z"/>
<path d="M7595 1398 c-9 -24 -1 -113 10 -111 14 4 19 103 6 116 -7 7 -12 5
-16 -5z"/>
<path d="M7137 1413 c-10 -9 -9 -131 1 -136 4 -3 7 28 7 69 0 41 0 74 -1 74 0
0 -4 -3 -7 -7z"/>
<path d="M7177 1393 c-12 -11 -8 -23 8 -23 8 0 15 7 15 15 0 16 -12 20 -23 8z"/>
<path d="M6940 1385 c0 -8 7 -15 15 -15 8 0 15 7 15 15 0 8 -7 15 -15 15 -8 0
-15 -7 -15 -15z"/>
<path d="M6940 1311 c0 -26 15 -34 30 -16 7 8 16 12 21 9 5 -3 9 2 9 10 0 11
-9 16 -30 16 -23 0 -30 -5 -30 -19z"/>
<path d="M7036 1323 c-9 -9 -7 -33 3 -33 12 0 22 28 12 34 -5 3 -11 3 -15 -1z"/>
</g>
</svg>
