<?xml version="1.0" encoding="utf-8"?>
<!-- Generator: Adobe Illustrator 19.2.1, SVG Export Plug-In . SVG Version: 6.00 Build 0)  -->
<svg version="1.1" id="layer" xmlns="http://www.w3.org/2000/svg" xmlns:xlink="http://www.w3.org/1999/xlink" x="0px" y="0px"
	 viewBox="0 0 652 652" style="enable-background:new 0 0 652 652;" xml:space="preserve">
<style type="text/css">
	.st0{fill:#f2ecee;}
	.st1{fill:#f2ecee;}
</style>
<polygon class="st0" points="290.8,263 20.2,381.9 107.9,381.9 295.3,263 "/>
<polygon class="st0" points="209.9,334.8 149.5,381.9 286.7,381.9 295.1,334.8 "/>
<polygon class="st0" points="255.6,299.3 302,299.3 296.8,324.3 222.9,324.3 "/>
<polygon class="st0" points="283.4,277.8 305.4,277.8 303,291.6 265.6,291.6 "/>
<polygon class="st0" points="302.5,263 289.2,272.6 306,272.6 307.8,263 "/>
<polygon class="st1" points="327.7,337.5 318.8,337.5 326.2,309.1 317.4,309.1 318.8,303.8 344.6,303.8 343.3,309.1 335,309.1 "/>
<g>
	<path class="st1" d="M341.9,337.5h-7.8l6.2-23.9h7.8l-1.3,4.7c0.4-0.6,0.8-1.2,1.2-1.8c0.4-0.6,0.9-1.2,1.5-1.7
		c0.6-0.5,1.2-0.9,1.9-1.2c0.7-0.3,1.5-0.5,2.4-0.5c0.4,0,0.8,0,1.1,0.1c0.3,0.1,0.6,0.2,0.8,0.3l-1.7,6.1c-0.3-0.2-0.8-0.4-1.2-0.6
		c-0.5-0.2-1-0.3-1.7-0.3c-1.1,0-2,0.3-2.7,0.8c-0.7,0.5-1.3,1.1-1.8,1.8c-0.5,0.7-0.8,1.5-1.1,2.3c-0.3,0.8-0.5,1.5-0.6,2.1
		L341.9,337.5z"/>
	<path class="st1" d="M373.9,337.5h-6.6c-0.3,0-0.5,0-0.8,0c-0.3,0-0.5-0.1-0.7-0.2c-0.2-0.1-0.3-0.3-0.4-0.5
		c-0.1-0.2-0.2-0.5-0.2-1c0-0.2,0-0.3,0-0.5c0-0.2,0-0.4,0.1-0.5c-0.3,0.3-0.6,0.7-0.9,1c-0.3,0.3-0.8,0.7-1.5,1
		c-0.6,0.3-1.3,0.6-2.1,0.9c-0.8,0.3-1.8,0.4-2.9,0.4c-1.2,0-2.2-0.2-2.9-0.5c-0.8-0.3-1.4-0.7-1.8-1.1c-0.3-0.3-0.6-0.7-0.7-1
		c-0.2-0.4-0.3-0.7-0.4-1.1c-0.1-0.3-0.2-0.6-0.2-0.9c0-0.3,0-0.5,0-0.7c0-0.4,0-0.7,0-1.1c0-0.4,0.1-0.7,0.2-1.1
		c0.3-1.1,0.6-2,1.2-2.7c0.5-0.7,1.1-1.3,1.6-1.8c0.6-0.5,1.1-0.8,1.6-1c0.5-0.2,0.9-0.4,1.2-0.5c0.7-0.2,1.5-0.4,2.4-0.6
		c0.9-0.2,1.9-0.3,2.8-0.5c1-0.1,1.9-0.2,2.9-0.3c0.9-0.1,1.8-0.2,2.5-0.2l0.2-1c0.1-0.4,0.2-0.9,0.4-1.5c0.1-0.5,0.2-1,0.2-1.5
		c0-0.9-0.3-1.5-0.8-1.9c-0.6-0.3-1.2-0.5-1.8-0.5c-1.2,0-2.1,0.4-2.9,1.3c-0.4,0.4-0.7,0.9-0.8,1.4c-0.2,0.5-0.3,1-0.5,1.4h-7.6
		c0.1-0.4,0.2-0.8,0.4-1.4c0.2-0.5,0.4-1.1,0.7-1.6c0.3-0.6,0.7-1.1,1.3-1.7c0.5-0.6,1.2-1.1,2.1-1.5c0.6-0.3,1.2-0.6,1.9-0.8
		c0.7-0.2,1.4-0.4,2.1-0.5c0.7-0.1,1.3-0.2,2-0.3c0.6,0,1.2-0.1,1.7-0.1c1,0,2.1,0.1,3.4,0.3c1.3,0.2,2.4,0.5,3.3,1
		c0.7,0.4,1.4,0.9,2.1,1.7c0.6,0.7,1,1.8,1,3.2c0,0.5,0,1.1-0.1,1.6c-0.1,0.5-0.2,1-0.3,1.5l-2.9,11c-0.1,0.4-0.2,0.8-0.3,1.2
		c-0.1,0.4-0.1,0.8-0.1,1.1c0,0.5,0.1,0.9,0.4,1.1c0.3,0.2,0.5,0.3,0.6,0.3L373.9,337.5z M367.7,326c-0.5,0-1,0.1-1.6,0.1
		c-0.6,0-1.1,0.1-1.7,0.3c-0.6,0.1-1.1,0.3-1.6,0.5c-0.5,0.2-1,0.4-1.3,0.7c-0.7,0.5-1.2,1.2-1.5,1.9c-0.3,0.7-0.4,1.4-0.4,2
		c0,0.3,0,0.5,0.1,0.8c0.1,0.3,0.2,0.6,0.4,0.8c0.2,0.3,0.4,0.5,0.8,0.6c0.3,0.2,0.8,0.3,1.3,0.3c0.7,0,1.3-0.1,1.9-0.4
		c0.6-0.3,1.1-0.6,1.4-1.1c0.4-0.4,0.6-0.8,0.8-1.2c0.2-0.4,0.4-1,0.6-1.8L367.7,326z"/>
	<path class="st1" d="M398.7,337.5h-7.8l3.7-14.5c0.2-0.6,0.3-1.3,0.5-2c0.2-0.7,0.3-1.3,0.3-1.7c0-0.5-0.1-1-0.4-1.4
		c-0.3-0.5-0.8-0.7-1.7-0.7c-0.5,0-1,0.1-1.5,0.4c-0.5,0.2-1,0.6-1.4,1c-0.2,0.2-0.4,0.4-0.5,0.6c-0.1,0.2-0.3,0.4-0.4,0.7
		c-0.1,0.3-0.2,0.6-0.4,1c-0.1,0.4-0.2,0.8-0.4,1.4l-4,15.3h-7.8l6.2-23.9h7.7l-0.7,2.8c1.2-0.9,2.4-1.7,3.7-2.3
		c1.3-0.6,2.7-0.9,4.2-0.9c1.8,0,3.1,0.5,4,1.4c0.9,1,1.3,2.1,1.3,3.4c0,0.8-0.1,1.5-0.3,2.3c-0.2,0.8-0.4,1.5-0.5,2.3L398.7,337.5z
		"/>
	<path class="st1" d="M411.3,327c-0.5-0.2-1-0.5-1.5-0.8c-0.6-0.3-1.1-0.7-1.6-1.2c-0.5-0.5-0.9-1.1-1.2-1.8
		c-0.3-0.7-0.5-1.5-0.5-2.5c0-1.2,0.3-2.3,1-3.5c0.6-1.1,1.7-2.1,3.1-2.8c1-0.5,2.1-0.9,3.2-1.1c1.1-0.2,2.3-0.3,3.4-0.3
		c0.3,0,0.7,0,1.3,0c0.6,0,1.2,0.1,1.9,0.2c0.7,0.1,1.4,0.3,2.2,0.5c0.7,0.2,1.4,0.5,2,1s1.1,1,1.5,1.6c0.4,0.7,0.6,1.5,0.6,2.4
		c0,0.4,0,0.8-0.1,1.3l-6.5-0.2c0-0.2,0-0.3,0-0.5c0-0.1,0-0.3,0-0.5c0-0.5-0.1-1-0.3-1.3c-0.2-0.3-0.5-0.6-0.8-0.8
		c-0.3-0.2-0.7-0.3-1-0.4c-0.3-0.1-0.7-0.1-1-0.1c-0.9,0-1.7,0.2-2.2,0.7c-0.6,0.4-0.9,1-0.9,1.7c0,0.9,0.3,1.5,1,2
		c0.7,0.5,1.6,1,2.6,1.5l2.3,1c0.5,0.3,1,0.5,1.6,0.9c0.6,0.3,1.1,0.7,1.5,1.2c0.5,0.5,0.9,1.1,1.2,1.7c0.3,0.7,0.5,1.5,0.5,2.5
		c0,1.2-0.3,2.4-0.9,3.6c-0.6,1.1-1.4,2.1-2.3,2.8c-0.8,0.6-1.9,1.2-3.2,1.6c-1.3,0.4-2.9,0.6-4.8,0.6c-1.3,0-2.6-0.1-3.8-0.3
		c-1.2-0.2-2.4-0.5-3.4-1c-1-0.5-1.8-1.1-2.4-1.9c-0.6-0.8-0.9-1.8-0.9-3.1c0-0.3,0-0.5,0-0.8c0-0.2,0.1-0.5,0.1-0.8l7,0.2
		c0,0.1,0,0.3,0,0.4c0,0.1,0,0.3,0,0.5c0,0.7,0.1,1.2,0.3,1.6c0.2,0.4,0.5,0.8,0.9,1c0.4,0.3,0.8,0.4,1.2,0.5
		c0.4,0.1,0.8,0.1,1.2,0.1c1.2,0,2.1-0.3,2.6-0.9c0.6-0.6,0.9-1.3,0.9-2c0-0.5-0.1-0.9-0.3-1.3c-0.2-0.4-0.5-0.7-0.8-1
		c-0.3-0.3-0.7-0.5-1.1-0.7c-0.4-0.2-0.9-0.4-1.4-0.7L411.3,327z"/>
	<path class="st1" d="M430.9,347.3h-7.8l8.7-33.7h7.8l-0.8,2.8c0.3-0.3,0.7-0.6,1.2-0.9c0.5-0.4,1.1-0.7,1.7-1.1
		c0.7-0.3,1.4-0.6,2.2-0.9c0.8-0.2,1.7-0.4,2.7-0.4c0.8,0,1.6,0.1,2.4,0.4c0.8,0.2,1.5,0.7,2.1,1.3c0.4,0.4,0.7,0.9,1,1.4
		c0.2,0.5,0.4,0.9,0.5,1.4c0.1,0.5,0.2,0.9,0.2,1.3c0,0.4,0,0.8,0,1.1c0,1.4-0.2,2.9-0.5,4.4c-0.3,1.6-0.8,3.2-1.4,4.8
		c-0.3,0.6-0.6,1.4-1.1,2.4c-0.4,1-1.1,1.9-1.9,2.9c-0.8,0.9-1.8,1.7-3.1,2.4c-1.2,0.6-2.8,1-4.6,1c-1.1,0-1.9-0.1-2.7-0.3
		c-0.7-0.2-1.4-0.5-1.9-0.8c-0.5-0.3-0.9-0.7-1.2-1.1c-0.3-0.4-0.5-0.7-0.7-0.9L430.9,347.3z M435.8,328.8c-0.2,0.7-0.3,1.3-0.4,1.6
		c-0.1,0.4-0.1,0.7-0.1,1c0,0.5,0.1,0.9,0.3,1.3c0.2,0.4,0.5,0.6,0.8,0.8c0.3,0.2,0.6,0.4,1,0.5c0.4,0.1,0.7,0.1,1,0.1
		c0.7,0,1.3-0.1,1.8-0.4c0.5-0.3,0.9-0.6,1.3-1c0.4-0.4,0.7-0.8,0.9-1.1c0.2-0.4,0.4-0.7,0.5-0.9c0.4-0.8,0.8-1.7,1.1-2.7
		c0.3-1,0.6-2,0.8-2.9c0.2-1,0.4-1.8,0.5-2.7c0.1-0.8,0.2-1.5,0.2-2c0-0.8-0.1-1.5-0.4-1.9c-0.2-0.5-0.5-0.8-0.8-1
		c-0.3-0.2-0.6-0.4-0.9-0.4c-0.3,0-0.5-0.1-0.6-0.1c-0.3,0-0.8,0.1-1.5,0.4c-0.7,0.2-1.5,0.9-2.5,1.9c-0.1,0.1-0.2,0.2-0.3,0.4
		c-0.1,0.1-0.2,0.2-0.3,0.4L435.8,328.8z"/>
	<path class="st1" d="M479.6,326c-0.5,2.2-1.2,4-2,5.5c-0.8,1.5-1.8,2.8-3,3.8c-1.2,1-2.5,1.7-4.1,2.1c-1.6,0.4-3.4,0.7-5.4,0.7
		c-1.6,0-3-0.2-4.3-0.5c-1.3-0.3-2.4-0.8-3.3-1.5c-0.9-0.7-1.6-1.6-2.1-2.7c-0.5-1.1-0.7-2.4-0.7-3.9c0-1.1,0.1-2.2,0.3-3.4
		c0.2-1.2,0.5-2.4,1-3.6c0.4-1.2,1-2.3,1.6-3.4c0.6-1.1,1.4-2,2.3-2.8c0.9-0.8,1.8-1.4,2.7-1.8c1-0.4,1.9-0.8,2.8-1
		c0.9-0.2,1.8-0.4,2.6-0.4c0.8,0,1.4-0.1,2-0.1c1.7,0,3.3,0.2,4.9,0.7c1.6,0.5,2.8,1.4,3.8,2.7c0.5,0.7,0.9,1.6,1.1,2.5
		c0.2,0.9,0.3,1.8,0.3,2.8c0,0.7-0.1,1.4-0.1,2.1C479.9,324.6,479.7,325.3,479.6,326 M472,324.9c0.1-0.4,0.2-1.1,0.4-1.9
		c0.2-0.8,0.3-1.7,0.3-2.5c0-1-0.2-1.9-0.7-2.7c-0.5-0.8-1.3-1.2-2.6-1.2c-0.6,0-1.1,0.1-1.5,0.3c-0.4,0.2-0.8,0.4-1.2,0.6
		c-0.3,0.3-0.6,0.5-0.8,0.8c-0.2,0.3-0.4,0.5-0.5,0.7c-0.5,0.7-0.9,1.6-1.3,2.7c-0.4,1.1-0.7,2.2-1,3.3c-0.3,1.1-0.4,2.2-0.6,3.1
		c-0.1,1-0.2,1.7-0.2,2.1c0,1.1,0.3,2.1,0.8,2.8c0.6,0.8,1.4,1.1,2.5,1.1c0.9,0,1.6-0.2,2.3-0.7c0.7-0.5,1.2-1.2,1.7-2
		c0.5-0.9,0.9-1.9,1.3-3C471.3,327.5,471.7,326.2,472,324.9"/>
	<path class="st1" d="M488.1,337.5h-7.8l6.2-23.9h7.8l-1.3,4.7c0.4-0.6,0.8-1.2,1.2-1.8c0.4-0.6,0.9-1.2,1.5-1.7
		c0.6-0.5,1.2-0.9,1.9-1.2c0.7-0.3,1.5-0.5,2.4-0.5c0.4,0,0.8,0,1.1,0.1c0.3,0.1,0.6,0.2,0.8,0.3l-1.7,6.1c-0.4-0.2-0.8-0.4-1.2-0.6
		c-0.5-0.2-1-0.3-1.7-0.3c-1.1,0-2,0.3-2.7,0.8c-0.7,0.5-1.3,1.1-1.8,1.8c-0.5,0.7-0.8,1.5-1.1,2.3c-0.3,0.8-0.5,1.5-0.6,2.1
		L488.1,337.5z"/>
	<path class="st1" d="M508.4,328.4c-0.3,1-0.4,1.7-0.5,2c-0.1,0.4-0.1,0.7-0.1,1.1c0,0.8,0.2,1.3,0.7,1.6c0.5,0.3,1,0.4,1.6,0.4
		c0.4,0,0.7,0,1.1-0.1c0.4-0.1,0.7-0.2,1.2-0.3l-1.1,4.2c-0.7,0.2-1.5,0.3-2.3,0.5c-0.8,0.2-1.7,0.2-2.8,0.2c-0.6,0-1.1,0-1.7-0.1
		c-0.6-0.1-1.1-0.2-1.6-0.4c-0.7-0.2-1.2-0.5-1.6-0.9c-0.4-0.4-0.7-0.7-0.9-1.1c-0.2-0.4-0.4-0.8-0.4-1.2c-0.1-0.4-0.1-0.8-0.1-1.3
		c0-0.6,0.1-1.3,0.2-1.9c0.1-0.6,0.3-1.3,0.5-2l3.2-12.2h-3.2l0.9-3.2h3.2l1.2-4.6l8.1-1.4l-1.6,6.1h4l-0.9,3.2h-3.9L508.4,328.4z"
		/>
	<path class="st1" d="M535.6,337.5H529c-0.3,0-0.5,0-0.8,0c-0.3,0-0.5-0.1-0.7-0.2c-0.2-0.1-0.3-0.3-0.4-0.5c-0.1-0.2-0.2-0.5-0.2-1
		c0-0.2,0-0.3,0-0.5c0-0.2,0-0.4,0.1-0.5c-0.3,0.3-0.6,0.7-0.9,1c-0.3,0.3-0.8,0.7-1.5,1c-0.6,0.3-1.3,0.6-2.1,0.9
		c-0.8,0.3-1.8,0.4-2.9,0.4c-1.2,0-2.2-0.2-2.9-0.5c-0.8-0.3-1.4-0.7-1.8-1.1c-0.3-0.3-0.6-0.7-0.7-1c-0.2-0.4-0.3-0.7-0.4-1.1
		c-0.1-0.3-0.2-0.6-0.2-0.9c0-0.3,0-0.5,0-0.7c0-0.4,0-0.7,0-1.1c0-0.4,0.1-0.7,0.2-1.1c0.3-1.1,0.6-2,1.2-2.7
		c0.5-0.7,1.1-1.3,1.6-1.8c0.6-0.5,1.1-0.8,1.6-1c0.5-0.2,0.9-0.4,1.2-0.5c0.7-0.2,1.5-0.4,2.4-0.6c0.9-0.2,1.9-0.3,2.8-0.5
		c1-0.1,1.9-0.2,2.9-0.3c0.9-0.1,1.8-0.2,2.5-0.2l0.2-1c0.1-0.4,0.2-0.9,0.4-1.5c0.1-0.5,0.2-1,0.2-1.5c0-0.9-0.3-1.5-0.8-1.9
		c-0.6-0.3-1.2-0.5-1.8-0.5c-1.2,0-2.1,0.4-2.9,1.3c-0.4,0.4-0.7,0.9-0.8,1.4c-0.2,0.5-0.3,1-0.5,1.4h-7.6c0.1-0.4,0.2-0.8,0.4-1.4
		c0.2-0.5,0.4-1.1,0.7-1.6c0.3-0.6,0.7-1.1,1.3-1.7c0.5-0.6,1.2-1.1,2-1.5c0.6-0.3,1.3-0.6,1.9-0.8c0.7-0.2,1.4-0.4,2.1-0.5
		c0.7-0.1,1.3-0.2,2-0.3c0.6,0,1.2-0.1,1.7-0.1c1,0,2.1,0.1,3.4,0.3c1.3,0.2,2.4,0.5,3.3,1c0.7,0.4,1.4,0.9,2.1,1.7
		c0.6,0.7,1,1.8,1,3.2c0,0.5,0,1.1-0.1,1.6c-0.1,0.5-0.2,1-0.3,1.5l-2.9,11c-0.1,0.4-0.2,0.8-0.3,1.2c-0.1,0.4-0.1,0.8-0.1,1.1
		c0,0.5,0.1,0.9,0.4,1.1c0.3,0.2,0.5,0.3,0.6,0.3L535.6,337.5z M529.4,326c-0.5,0-1,0.1-1.6,0.1c-0.6,0-1.1,0.1-1.7,0.3
		c-0.6,0.1-1.1,0.3-1.6,0.5c-0.5,0.2-1,0.4-1.3,0.7c-0.7,0.5-1.2,1.2-1.5,1.9c-0.3,0.7-0.4,1.4-0.4,2c0,0.3,0,0.5,0.1,0.8
		c0.1,0.3,0.2,0.6,0.4,0.8c0.2,0.3,0.4,0.5,0.8,0.6c0.3,0.2,0.8,0.3,1.3,0.3c0.7,0,1.3-0.1,1.9-0.4c0.6-0.3,1.1-0.6,1.4-1.1
		c0.4-0.4,0.6-0.8,0.8-1.2c0.2-0.4,0.4-1,0.6-1.8L529.4,326z"/>
	<path class="st1" d="M549.2,328.4c-0.3,1-0.4,1.7-0.5,2c-0.1,0.4-0.1,0.7-0.1,1.1c0,0.8,0.2,1.3,0.7,1.6c0.5,0.3,1,0.4,1.5,0.4
		c0.4,0,0.7,0,1.1-0.1c0.4-0.1,0.7-0.2,1.2-0.3l-1.1,4.2c-0.7,0.2-1.5,0.3-2.3,0.5c-0.8,0.2-1.7,0.2-2.8,0.2c-0.6,0-1.1,0-1.7-0.1
		c-0.6-0.1-1.1-0.2-1.6-0.4c-0.7-0.2-1.2-0.5-1.6-0.9c-0.4-0.4-0.7-0.7-0.9-1.1c-0.2-0.4-0.3-0.8-0.4-1.2c-0.1-0.4-0.1-0.8-0.1-1.3
		c0-0.6,0.1-1.3,0.2-1.9c0.1-0.6,0.3-1.3,0.5-2l3.2-12.2h-3.2l0.9-3.2h3.2l1.2-4.6l8.1-1.4l-1.6,6.1h4l-0.9,3.2h-3.9L549.2,328.4z"
		/>
	<path class="st1" d="M561.7,337.5H554l6.2-23.9h7.8L561.7,337.5z M568.8,310h-7.8l1.5-5.9h7.8L568.8,310z"/>
	<path class="st1" d="M593,326c-0.5,2.2-1.2,4-2,5.5c-0.8,1.5-1.8,2.8-3,3.8c-1.2,1-2.6,1.7-4.1,2.1c-1.6,0.4-3.4,0.7-5.4,0.7
		c-1.6,0-3-0.2-4.3-0.5c-1.3-0.3-2.4-0.8-3.3-1.5c-0.9-0.7-1.6-1.6-2.1-2.7c-0.5-1.1-0.7-2.4-0.7-3.9c0-1.1,0.1-2.2,0.3-3.4
		c0.2-1.2,0.5-2.4,1-3.6c0.4-1.2,1-2.3,1.6-3.4c0.6-1.1,1.4-2,2.3-2.8c0.9-0.8,1.8-1.4,2.7-1.8c1-0.4,1.9-0.8,2.8-1
		c0.9-0.2,1.8-0.4,2.6-0.4c0.8,0,1.4-0.1,2-0.1c1.7,0,3.3,0.2,4.9,0.7c1.6,0.5,2.8,1.4,3.8,2.7c0.5,0.7,0.9,1.6,1.1,2.5
		c0.2,0.9,0.3,1.8,0.3,2.8c0,0.7,0,1.4-0.1,2.1C593.3,324.6,593.2,325.3,593,326 M585.5,324.9c0.1-0.4,0.2-1.1,0.4-1.9
		c0.2-0.8,0.3-1.7,0.3-2.5c0-1-0.2-1.9-0.7-2.7c-0.5-0.8-1.3-1.2-2.6-1.2c-0.6,0-1.1,0.1-1.5,0.3c-0.4,0.2-0.8,0.4-1.2,0.6
		c-0.3,0.3-0.6,0.5-0.8,0.8c-0.2,0.3-0.4,0.5-0.5,0.7c-0.5,0.7-0.9,1.6-1.3,2.7c-0.4,1.1-0.7,2.2-1,3.3c-0.3,1.1-0.4,2.2-0.6,3.1
		c-0.1,1-0.2,1.7-0.2,2.1c0,1.1,0.3,2.1,0.8,2.8c0.6,0.8,1.4,1.1,2.5,1.1c0.9,0,1.6-0.2,2.3-0.7c0.7-0.5,1.2-1.2,1.7-2
		c0.5-0.9,0.9-1.9,1.3-3C584.8,327.5,585.1,326.2,585.5,324.9"/>
	<path class="st1" d="M615.6,337.5h-7.8l3.7-14.5c0.2-0.6,0.3-1.3,0.5-2c0.2-0.7,0.3-1.3,0.3-1.7c0-0.5-0.1-1-0.4-1.4
		c-0.3-0.5-0.8-0.7-1.7-0.7c-0.5,0-1,0.1-1.5,0.4c-0.5,0.2-1,0.6-1.4,1c-0.2,0.2-0.4,0.4-0.5,0.6c-0.1,0.2-0.3,0.4-0.4,0.7
		c-0.1,0.3-0.2,0.6-0.4,1c-0.1,0.4-0.2,0.8-0.4,1.4l-4,15.3h-7.8l6.2-23.9h7.7l-0.7,2.8c1.2-0.9,2.5-1.7,3.7-2.3
		c1.3-0.6,2.7-0.9,4.2-0.9c1.8,0,3.2,0.5,4,1.4c0.9,1,1.3,2.1,1.3,3.4c0,0.8-0.1,1.5-0.3,2.3c-0.2,0.8-0.4,1.5-0.6,2.3L615.6,337.5z
		"/>
	<polygon class="st1" points="317.8,380 309,380 317.7,346.3 326.5,346.3 	"/>
	<path class="st1" d="M344.8,380H337l3.7-14.5c0.2-0.6,0.3-1.3,0.5-2c0.2-0.7,0.3-1.3,0.3-1.7c0-0.5-0.1-1-0.4-1.4
		c-0.3-0.5-0.8-0.7-1.7-0.7c-0.5,0-1,0.1-1.5,0.4c-0.5,0.2-1,0.6-1.4,1c-0.2,0.2-0.4,0.4-0.5,0.6c-0.1,0.2-0.3,0.4-0.4,0.7
		c-0.1,0.3-0.2,0.6-0.4,1c-0.1,0.4-0.2,0.8-0.4,1.4l-4,15.3H323l6.2-23.9h7.7l-0.7,2.8c1.2-0.9,2.5-1.7,3.7-2.3
		c1.3-0.6,2.7-0.9,4.2-0.9c1.8,0,3.2,0.5,4,1.4c0.9,1,1.3,2.1,1.3,3.4c0,0.8-0.1,1.5-0.3,2.3c-0.2,0.8-0.4,1.5-0.5,2.3L344.8,380z"
		/>
	<path class="st1" d="M357.4,369.5c-0.5-0.2-1-0.5-1.6-0.8c-0.6-0.3-1.1-0.7-1.6-1.2c-0.5-0.5-0.9-1.1-1.2-1.8
		c-0.3-0.7-0.5-1.5-0.5-2.5c0-1.2,0.3-2.3,1-3.5c0.6-1.1,1.7-2.1,3.1-2.8c1-0.5,2.1-0.9,3.2-1.1c1.1-0.2,2.3-0.3,3.4-0.3
		c0.3,0,0.7,0,1.3,0c0.6,0,1.2,0.1,1.9,0.2c0.7,0.1,1.4,0.3,2.2,0.5c0.7,0.2,1.4,0.5,2,1c0.6,0.4,1.1,1,1.5,1.7
		c0.4,0.7,0.6,1.5,0.6,2.4c0,0.4,0,0.8-0.1,1.3l-6.5-0.2c0-0.2,0-0.3,0-0.5c0-0.1,0-0.3,0-0.5c0-0.5-0.1-1-0.3-1.3
		c-0.2-0.3-0.5-0.6-0.8-0.8c-0.3-0.2-0.7-0.3-1-0.4c-0.4-0.1-0.7-0.1-1-0.1c-0.9,0-1.7,0.2-2.2,0.7c-0.6,0.4-0.9,1-0.9,1.7
		c0,0.9,0.3,1.5,1,2c0.7,0.5,1.6,1,2.6,1.5l2.3,1c0.5,0.3,1,0.5,1.6,0.9c0.6,0.3,1.1,0.7,1.6,1.2c0.5,0.5,0.9,1.1,1.2,1.7
		c0.3,0.7,0.5,1.5,0.5,2.5c0,1.2-0.3,2.4-0.9,3.6c-0.6,1.1-1.4,2.1-2.3,2.8c-0.8,0.6-1.9,1.2-3.1,1.6c-1.3,0.4-2.9,0.6-4.8,0.6
		c-1.3,0-2.6-0.1-3.8-0.3c-1.2-0.2-2.4-0.5-3.4-1c-1-0.5-1.8-1.1-2.4-1.9c-0.6-0.8-0.9-1.8-0.9-3.1c0-0.3,0-0.6,0-0.8
		c0-0.2,0.1-0.5,0.1-0.8l7,0.2c0,0.1,0,0.3,0,0.4c0,0.1,0,0.3,0,0.5c0,0.7,0.1,1.2,0.3,1.6s0.5,0.8,0.9,1c0.4,0.3,0.8,0.4,1.2,0.5
		c0.4,0.1,0.8,0.1,1.2,0.1c1.2,0,2.1-0.3,2.6-0.9c0.6-0.6,0.9-1.3,0.9-2c0-0.5-0.1-0.9-0.3-1.3c-0.2-0.4-0.5-0.7-0.8-1
		c-0.3-0.3-0.7-0.5-1.1-0.7c-0.4-0.2-0.9-0.4-1.4-0.7L357.4,369.5z"/>
	<path class="st1" d="M382.4,370.9c-0.3,1-0.4,1.7-0.5,2c-0.1,0.4-0.1,0.7-0.1,1.1c0,0.8,0.2,1.3,0.7,1.6c0.5,0.3,1,0.4,1.5,0.4
		c0.4,0,0.7,0,1.1-0.1c0.3-0.1,0.7-0.2,1.2-0.3l-1.1,4.1c-0.7,0.2-1.5,0.3-2.3,0.5c-0.8,0.2-1.7,0.2-2.8,0.2c-0.6,0-1.1,0-1.7-0.1
		c-0.6-0.1-1.1-0.2-1.6-0.4c-0.7-0.2-1.2-0.5-1.6-0.9c-0.4-0.4-0.7-0.7-0.9-1.1c-0.2-0.4-0.4-0.8-0.4-1.2c-0.1-0.4-0.1-0.9-0.1-1.3
		c0-0.6,0.1-1.3,0.2-1.9c0.1-0.6,0.3-1.3,0.5-2l3.2-12.2h-3.2l0.9-3.2h3.2l1.2-4.6l8.1-1.4l-1.6,6.1h4l-0.9,3.2h-3.9L382.4,370.9z"
		/>
	<path class="st1" d="M394.9,380h-7.8l6.2-23.9h7.8L394.9,380z M402,352.5h-7.8l1.5-5.9h7.8L402,352.5z"/>
	<path class="st1" d="M410.3,370.9c-0.3,1-0.4,1.7-0.5,2c-0.1,0.4-0.1,0.7-0.1,1.1c0,0.8,0.2,1.3,0.7,1.6c0.5,0.3,1,0.4,1.5,0.4
		c0.4,0,0.7,0,1.1-0.1c0.3-0.1,0.7-0.2,1.2-0.3l-1.1,4.1c-0.7,0.2-1.5,0.3-2.3,0.5c-0.8,0.2-1.7,0.2-2.8,0.2c-0.6,0-1.1,0-1.7-0.1
		c-0.6-0.1-1.1-0.2-1.6-0.4c-0.7-0.2-1.2-0.5-1.6-0.9c-0.4-0.4-0.7-0.7-0.9-1.1c-0.2-0.4-0.4-0.8-0.4-1.2c-0.1-0.4-0.1-0.9-0.1-1.3
		c0-0.6,0.1-1.3,0.2-1.9s0.3-1.3,0.5-2l3.2-12.2h-3.2l0.9-3.2h3.2l1.2-4.6l8.1-1.4l-1.6,6.1h4l-0.9,3.2h-3.9L410.3,370.9z"/>
	<path class="st1" d="M437.6,380h-7.7l0.7-2.9c-0.3,0.2-0.7,0.5-1.2,0.9c-0.5,0.4-1.1,0.7-1.8,1.1c-0.7,0.4-1.5,0.7-2.4,0.9
		c-0.9,0.3-1.9,0.4-3,0.4c-1.9,0-3.4-0.5-4.4-1.4c-1-0.9-1.5-2.2-1.5-3.8c0-0.6,0.1-1.2,0.2-1.8c0.1-0.6,0.2-1.2,0.4-1.7l4.1-15.6
		h7.8l-3.8,14.5c-0.2,0.5-0.3,1.1-0.4,1.7c-0.1,0.6-0.2,1.2-0.2,1.7c0,0.9,0.3,1.5,0.8,1.8c0.6,0.3,1.1,0.5,1.7,0.5
		c0.7,0,1.5-0.2,2.2-0.5c0.7-0.3,1.4-0.8,1.8-1.5c0.3-0.4,0.6-1,0.7-1.5c0.2-0.6,0.3-1.1,0.5-1.7l3.9-15h7.7L437.6,380z"/>
	<path class="st1" d="M453,370.9c-0.3,1-0.4,1.7-0.5,2c-0.1,0.4-0.1,0.7-0.1,1.1c0,0.8,0.2,1.3,0.7,1.6c0.5,0.3,1,0.4,1.5,0.4
		c0.4,0,0.7,0,1.1-0.1c0.3-0.1,0.7-0.2,1.2-0.3l-1.1,4.1c-0.7,0.2-1.5,0.3-2.3,0.5c-0.8,0.2-1.7,0.2-2.8,0.2c-0.6,0-1.1,0-1.7-0.1
		c-0.6-0.1-1.1-0.2-1.7-0.4c-0.7-0.2-1.2-0.5-1.6-0.9c-0.4-0.4-0.7-0.7-0.9-1.1c-0.2-0.4-0.4-0.8-0.4-1.2c-0.1-0.4-0.1-0.9-0.1-1.3
		c0-0.6,0.1-1.3,0.2-1.9c0.1-0.6,0.3-1.3,0.5-2l3.2-12.2h-3.2l0.9-3.2h3.2l1.2-4.6l8.1-1.4l-1.6,6.1h4l-0.9,3.2H456L453,370.9z"/>
	<path class="st1" d="M482.9,372.5c-0.2,0.7-0.5,1.4-0.9,2.2c-0.4,0.8-1,1.6-2,2.5c-0.4,0.4-0.9,0.7-1.5,1.1
		c-0.6,0.4-1.3,0.8-2.1,1.1c-0.8,0.3-1.8,0.6-3,0.8c-1.1,0.2-2.4,0.3-3.8,0.3c-1.5,0-2.9-0.1-4.2-0.4c-1.3-0.3-2.4-0.8-3.2-1.4
		c-0.9-0.7-1.6-1.5-2.1-2.5c-0.5-1-0.7-2.3-0.7-3.7c0-0.7,0.1-1.5,0.2-2.3c0.1-0.8,0.3-1.7,0.5-2.6c0.2-0.9,0.4-1.7,0.7-2.5
		c0.3-0.8,0.6-1.6,0.9-2.3c0.4-0.9,0.9-1.7,1.5-2.6c0.6-0.9,1.4-1.6,2.4-2.3c1-0.7,2.2-1.2,3.6-1.7c1.4-0.4,3.1-0.7,5.1-0.7
		c1.2,0,2.4,0.1,3.6,0.3c1.2,0.2,2.3,0.6,3.3,1.2c1,0.6,1.8,1.4,2.4,2.5c0.6,1,1,2.4,1,4.1c0,0.9-0.1,1.8-0.2,2.6
		c-0.1,0.8-0.3,1.7-0.6,2.5h-16.2c-0.2,0.7-0.3,1.5-0.5,2.2c-0.2,0.7-0.2,1.5-0.2,2.2c0,1.3,0.3,2.3,1,2.9c0.7,0.6,1.5,0.9,2.6,0.9
		c0.9,0,1.7-0.2,2.3-0.5c0.6-0.3,1.1-0.7,1.5-1.2c0.4-0.5,0.7-1,0.9-1.5c0.2-0.5,0.3-0.9,0.4-1.3H482.9z M476.8,365.4
		c0.1-0.3,0.2-0.7,0.3-1.2c0.1-0.6,0.2-1.1,0.2-1.7c0-1-0.3-1.8-0.8-2.4c-0.6-0.6-1.3-0.9-2.4-0.9c-0.9,0-1.7,0.2-2.3,0.6
		c-0.6,0.4-1.2,0.9-1.6,1.5c-0.4,0.6-0.8,1.3-1.1,2c-0.3,0.7-0.5,1.5-0.8,2.2H476.8z"/>
	<polygon class="st1" points="335,294.7 326.2,294.7 333.5,266.3 324.8,266.3 326.1,261 352,261 350.6,266.3 342.4,266.3 	"/>
	<path class="st1" d="M366.6,287.1c-0.2,0.7-0.5,1.4-0.9,2.2c-0.4,0.8-1,1.6-2,2.5c-0.4,0.4-0.9,0.7-1.5,1.1
		c-0.6,0.4-1.3,0.8-2.1,1.1c-0.8,0.3-1.8,0.6-3,0.8c-1.1,0.2-2.4,0.3-3.8,0.3c-1.5,0-2.9-0.1-4.2-0.4c-1.3-0.3-2.4-0.8-3.2-1.4
		c-0.9-0.6-1.6-1.5-2.1-2.5c-0.5-1-0.7-2.3-0.7-3.7c0-0.7,0.1-1.5,0.2-2.3c0.1-0.8,0.3-1.7,0.5-2.6c0.2-0.9,0.4-1.7,0.7-2.6
		c0.3-0.8,0.6-1.6,0.9-2.3c0.4-0.9,0.9-1.7,1.5-2.6c0.6-0.9,1.4-1.6,2.4-2.3c1-0.7,2.2-1.3,3.6-1.7c1.4-0.4,3.1-0.7,5.1-0.7
		c1.2,0,2.4,0.1,3.6,0.3c1.2,0.2,2.3,0.6,3.3,1.2c1,0.6,1.8,1.4,2.4,2.5c0.6,1,1,2.4,1,4.1c0,0.9-0.1,1.8-0.2,2.6
		c-0.1,0.8-0.3,1.7-0.6,2.5h-16.2c-0.2,0.7-0.3,1.5-0.5,2.2c-0.2,0.7-0.2,1.5-0.2,2.2c0,1.3,0.3,2.3,1,2.9c0.7,0.6,1.5,0.9,2.6,0.9
		c0.9,0,1.7-0.2,2.3-0.5c0.6-0.3,1.1-0.7,1.5-1.2c0.4-0.5,0.7-1,0.9-1.5c0.2-0.5,0.3-0.9,0.4-1.3H366.6z M360.5,280.1
		c0.1-0.3,0.2-0.7,0.3-1.2s0.2-1.1,0.2-1.7c0-1-0.3-1.8-0.8-2.4c-0.6-0.6-1.3-0.9-2.4-0.9c-0.9,0-1.7,0.2-2.3,0.6
		c-0.6,0.4-1.2,0.9-1.6,1.5c-0.4,0.6-0.8,1.3-1.1,2c-0.3,0.7-0.5,1.5-0.8,2.2H360.5z"/>
	<polygon class="st1" points="388.6,294.7 380.9,294.7 378.7,287.6 372.8,294.7 365.2,294.7 376.6,282.1 372.7,270.8 380.3,270.8 
		382.3,277.3 387.4,270.8 394.6,270.8 384.2,282.3 	"/>
	<path class="st1" d="M413.6,294.7H407c-0.3,0-0.5,0-0.8,0c-0.3,0-0.5-0.1-0.7-0.2c-0.2-0.1-0.3-0.3-0.4-0.5c-0.1-0.2-0.2-0.5-0.2-1
		c0-0.2,0-0.3,0-0.5c0-0.2,0-0.4,0.1-0.5c-0.3,0.3-0.6,0.7-0.9,1c-0.3,0.3-0.8,0.7-1.5,1c-0.6,0.3-1.3,0.6-2.1,0.9
		c-0.8,0.3-1.8,0.4-2.9,0.4c-1.2,0-2.2-0.2-2.9-0.5c-0.8-0.3-1.4-0.7-1.8-1.1c-0.3-0.3-0.6-0.7-0.7-1c-0.2-0.4-0.3-0.7-0.4-1.1
		s-0.2-0.6-0.2-0.9c0-0.3,0-0.5,0-0.7c0-0.3,0-0.7,0-1.1c0-0.3,0.1-0.7,0.2-1.1c0.3-1.1,0.6-2,1.2-2.7c0.5-0.7,1.1-1.3,1.6-1.8
		c0.6-0.5,1.1-0.8,1.6-1c0.5-0.2,0.9-0.4,1.2-0.5c0.7-0.2,1.5-0.4,2.4-0.6c0.9-0.2,1.9-0.3,2.8-0.5c1-0.1,1.9-0.2,2.9-0.3
		c0.9-0.1,1.8-0.1,2.5-0.2l0.2-1c0.1-0.4,0.2-0.9,0.4-1.5c0.1-0.5,0.2-1,0.2-1.5c0-0.9-0.3-1.5-0.8-1.9c-0.6-0.3-1.2-0.5-1.8-0.5
		c-1.2,0-2.1,0.4-2.9,1.3c-0.4,0.4-0.7,0.9-0.8,1.4c-0.2,0.5-0.3,1-0.5,1.4h-7.6c0.1-0.4,0.2-0.8,0.4-1.4c0.2-0.5,0.4-1.1,0.7-1.6
		c0.3-0.6,0.7-1.1,1.3-1.7c0.5-0.6,1.2-1.1,2.1-1.5c0.6-0.3,1.3-0.6,1.9-0.8c0.7-0.2,1.4-0.4,2.1-0.5c0.7-0.1,1.3-0.2,2-0.3
		c0.6,0,1.2-0.1,1.7-0.1c1,0,2.1,0.1,3.4,0.3c1.3,0.2,2.4,0.5,3.3,1c0.7,0.4,1.4,0.9,2.1,1.7c0.6,0.7,1,1.8,1,3.2
		c0,0.5,0,1.1-0.1,1.6c-0.1,0.5-0.2,1-0.3,1.5l-2.9,11c-0.1,0.4-0.2,0.8-0.3,1.2c-0.1,0.4-0.1,0.8-0.1,1.1c0,0.5,0.1,0.9,0.4,1.1
		c0.3,0.2,0.5,0.3,0.6,0.3L413.6,294.7z M407.4,283.1c-0.5,0-1,0.1-1.6,0.1c-0.6,0-1.1,0.1-1.7,0.3c-0.6,0.1-1.1,0.3-1.6,0.5
		c-0.5,0.2-1,0.4-1.3,0.7c-0.7,0.5-1.2,1.2-1.5,1.9c-0.3,0.7-0.4,1.4-0.4,2c0,0.3,0,0.5,0.1,0.8c0.1,0.3,0.2,0.6,0.4,0.8
		c0.2,0.3,0.4,0.5,0.8,0.6c0.3,0.2,0.8,0.3,1.3,0.3c0.7,0,1.3-0.1,1.9-0.4c0.6-0.3,1.1-0.6,1.4-1.1c0.4-0.4,0.6-0.8,0.8-1.2
		c0.2-0.4,0.4-1,0.6-1.8L407.4,283.1z"/>
	<path class="st1" d="M424.7,284.2c-0.5-0.2-1-0.5-1.5-0.8c-0.6-0.3-1.1-0.7-1.6-1.2c-0.5-0.5-0.9-1.1-1.2-1.8
		c-0.3-0.7-0.5-1.5-0.5-2.5c0-1.2,0.3-2.3,1-3.5c0.6-1.1,1.7-2.1,3.1-2.8c1-0.5,2.1-0.9,3.2-1.1c1.1-0.2,2.3-0.3,3.4-0.3
		c0.3,0,0.7,0,1.3,0c0.6,0,1.2,0.1,1.9,0.2c0.7,0.1,1.4,0.3,2.2,0.5c0.7,0.2,1.4,0.6,2,1c0.6,0.4,1.1,1,1.5,1.6
		c0.4,0.7,0.6,1.5,0.6,2.4c0,0.4,0,0.8-0.1,1.3l-6.5-0.2c0-0.2,0-0.3,0-0.5c0-0.1,0-0.3,0-0.5c0-0.5-0.1-1-0.3-1.3
		c-0.2-0.3-0.5-0.6-0.8-0.8c-0.3-0.2-0.6-0.3-1-0.4c-0.4-0.1-0.7-0.1-1-0.1c-0.9,0-1.7,0.2-2.2,0.7c-0.6,0.4-0.9,1-0.9,1.7
		c0,0.9,0.3,1.5,1,2c0.7,0.5,1.6,1,2.6,1.5l2.3,1c0.5,0.3,1,0.5,1.6,0.9c0.6,0.3,1.1,0.7,1.6,1.2c0.5,0.5,0.9,1.1,1.2,1.7
		c0.3,0.7,0.5,1.5,0.5,2.5c0,1.2-0.3,2.4-0.9,3.6c-0.6,1.1-1.4,2.1-2.3,2.8c-0.8,0.6-1.9,1.2-3.1,1.6c-1.3,0.4-2.9,0.6-4.8,0.6
		c-1.3,0-2.6-0.1-3.8-0.3c-1.2-0.2-2.4-0.5-3.4-1c-1-0.5-1.8-1.1-2.4-1.9c-0.6-0.8-0.9-1.8-0.9-3.1c0-0.3,0-0.6,0-0.8
		c0-0.2,0.1-0.5,0.1-0.8l7,0.2c0,0.1,0,0.3,0,0.4c0,0.1,0,0.3,0,0.5c0,0.7,0.1,1.2,0.3,1.6c0.2,0.4,0.5,0.8,0.9,1
		c0.4,0.3,0.8,0.4,1.2,0.5c0.4,0.1,0.8,0.1,1.2,0.1c1.2,0,2.1-0.3,2.6-0.9c0.6-0.6,0.9-1.3,0.9-2c0-0.5-0.1-0.9-0.3-1.3
		c-0.2-0.4-0.5-0.7-0.8-1c-0.3-0.3-0.7-0.5-1.1-0.7c-0.4-0.2-0.9-0.4-1.4-0.7L424.7,284.2z"/>
	<path class="st1" d="M481,294.7h-8.4l-0.3-10.7H463l-6,10.7h-8.3l19-32.9h12L481,294.7z M472.3,279l-0.2-8.9c0-0.3,0-0.6,0-0.8
		c0-0.2,0-0.4,0-0.6c0-0.2,0-0.4,0-0.6c0-0.2,0-0.5,0-0.9c-0.2,0.3-0.3,0.6-0.4,0.8c-0.1,0.2-0.2,0.4-0.3,0.6
		c-0.1,0.2-0.2,0.4-0.3,0.6c-0.1,0.2-0.2,0.4-0.4,0.6l-5.2,9.2H472.3z"/>
	<path class="st1" d="M511.2,279.9l-0.6,2.6c-0.3,1.1-0.6,2-0.9,2.8c-0.3,0.8-0.6,1.5-1,2.1c-0.4,0.6-0.8,1.1-1.2,1.5
		c-0.5,0.4-1,0.9-1.6,1.3l2.4,4.6h-7.4L500,293c-0.4,0.2-0.8,0.4-1.2,0.7c-0.5,0.2-1,0.5-1.6,0.7c-0.6,0.2-1.3,0.4-2.2,0.5
		c-0.8,0.1-1.8,0.2-2.8,0.2c-1.4,0-2.6-0.2-3.6-0.5c-1-0.3-1.8-0.7-2.5-1.2c-0.7-0.5-1.2-1-1.6-1.6c-0.4-0.6-0.7-1.2-0.9-1.8
		c-0.2-0.6-0.3-1.1-0.4-1.6c-0.1-0.5-0.1-0.9-0.1-1.2c0-1.1,0.2-2.1,0.5-3c0.3-0.9,0.8-1.6,1.3-2.3c0.6-0.7,1.2-1.2,1.9-1.7
		c0.7-0.5,1.4-0.9,2.1-1.2c0.7-0.3,1.4-0.6,2.1-0.8c0.7-0.2,1.3-0.4,1.8-0.5c-0.3-0.5-0.6-1.2-0.9-2c-0.3-0.8-0.5-1.7-0.5-2.8
		c0-1.3,0.3-2.5,0.8-3.4c0.5-1,1.3-1.7,2.1-2.3c0.9-0.6,1.9-1,3-1.3c1.1-0.3,2.2-0.4,3.4-0.4c0.9,0,1.8,0.1,2.7,0.3
		c1,0.2,1.8,0.5,2.6,1.1c0.8,0.5,1.4,1.2,1.8,1.9c0.4,0.8,0.6,1.6,0.6,2.5c0,1-0.2,1.9-0.7,2.6c-0.5,0.7-1.1,1.3-1.9,1.9
		c-0.8,0.5-1.7,1-2.7,1.4c-1,0.4-2.1,0.8-3.2,1.2l3.8,7.7c0.2-0.4,0.4-0.7,0.5-1c0.2-0.3,0.3-0.6,0.4-0.9c0.1-0.3,0.2-0.7,0.4-1.2
		c0.1-0.5,0.3-1.1,0.4-1.8l0.3-1.3H511.2z M493.8,280c-0.3,0.1-0.7,0.3-1.2,0.5c-0.5,0.2-1,0.5-1.4,0.9c-0.4,0.4-0.8,0.9-1.1,1.5
		c-0.3,0.6-0.5,1.4-0.5,2.3c0,0.6,0.1,1.3,0.3,2.1c0.2,0.7,0.5,1.4,1,2c0.5,0.6,1.1,1.1,1.8,1.5c0.7,0.4,1.6,0.6,2.7,0.6
		c0.9,0,1.6-0.1,2.1-0.3c0.5-0.2,0.9-0.4,1.3-0.6L493.8,280z M499,276.2c0.3-0.1,0.7-0.3,1.3-0.6c0.5-0.2,1-0.5,1.5-1
		c0.5-0.4,0.9-0.9,1.2-1.5c0.3-0.6,0.5-1.3,0.5-2.2c0-0.9-0.2-1.6-0.7-2c-0.5-0.4-1.1-0.6-1.7-0.6c-1,0-1.7,0.4-2.3,1.1
		c-0.6,0.7-0.8,1.6-0.8,2.7c0,0.8,0.1,1.5,0.3,2.2C498.5,274.9,498.7,275.6,499,276.2"/>
	<path class="st1" d="M548.4,294.7h-8l5.5-20.9c0.2-0.6,0.3-1.2,0.4-1.7c0.1-0.5,0.3-1,0.4-1.5c0.1-0.5,0.3-1,0.4-1.6
		c0.1-0.5,0.3-1.2,0.5-2c-0.3,0.6-0.5,1.1-0.8,1.5c-0.2,0.4-0.5,0.9-0.7,1.3c-0.2,0.4-0.5,0.9-0.7,1.4c-0.3,0.5-0.6,1.1-1,1.7
		l-11.7,21.6h-6.7l-0.6-20.9c0-0.6,0-1.1,0-1.6c0-0.5,0-0.9,0-1.4v-1.5v-2.1c-0.2,0.7-0.3,1.4-0.5,1.9c-0.1,0.5-0.2,1-0.4,1.5
		c-0.1,0.4-0.2,0.9-0.3,1.3c-0.1,0.4-0.2,1-0.4,1.5l-5.6,21.3h-7.7l8.9-32.9h12.4l0.4,18.3v1.3c0,0.3,0,0.7,0,1c0,0.3,0,0.7,0,1
		c0,0.4,0,0.8-0.1,1.3c0.2-0.5,0.5-1,0.6-1.4c0.2-0.4,0.3-0.7,0.5-1.1c0.2-0.4,0.3-0.7,0.5-1.1c0.2-0.4,0.5-0.9,0.8-1.5l9.6-17.9
		h12.7L548.4,294.7z"/>
</g>
</svg>
